<svg xmlns="http://www.w3.org/2000/svg" height="367.208" width="490.614" version="1.0"><path d="M306.393 362.688l-.161.807.484.808.647.485.97.646.646.485.646.646.162.808-.162 1.292-3.393-.808-3.232-.646-3.232-.97-3.07-.969-3.071-1.292-3.07-1.13-2.91-1.455-2.908-1.292.161.807.647.808.808.646 1.131.647.808.484.646.808v.808l-.323 1.13-2.909-.807-2.747-.808-2.747-1.13-2.586-.97-2.747-1.292-2.585-1.293-2.748-1.292-2.585-1.293.485 1.454 1.293 1.454.808.646.807.647.647.807.646.97-1.454.161h-1.454l-1.616-.484-1.616-.323-2.586-1.616-2.424-1.454-2.586-1.454-2.424-1.292-2.585-1.616-2.586-1.454-2.424-1.777-2.262-1.777-.162.808.323.807.647.647.97.646.646.485.646.807.162.97-.323 1.13-3.394-1.615-3.394-1.616-3.232-1.777-3.232-1.777-3.232-1.938-3.07-1.939-2.909-1.939-2.747-1.938.97 1.454 1.454 1.292.323.485.485.646v.808l-.485.97-3.07-1.616-3.07-1.616-2.91-1.777-2.908-1.777-3.07-2.1-2.91-1.939-2.747-2.1-2.747-1.939.323 4.2-2.424-1.938-2.262-1.939-2.262-1.777-2.101-1.777-2.263-1.939-2.262-1.938-2.262-1.939-2.263-1.938.808 5.33h-.485l-2.262-1.776-1.94-1.616-2.1-1.777-1.94-1.777-2.1-1.939-2.1-1.615-2.102-1.616-2.1-1.454-.324 4.685-1.454.323-1.454-1.938-1.455-1.939-1.616-1.777-1.454-1.777-1.778-1.939-1.454-1.615-1.778-1.777-1.454-1.454-.485.808v.969l.162.808.484.969.162 1.454-.646 1.292-2.101-1.938-1.94-1.939-1.939-2.1-1.777-2.1-1.94-2.262-1.615-2.1-1.94-2.262-1.616-1.939-1.777 5.008-2.101-2.907-1.94-2.747-1.777-3.07-1.777-2.907-1.94-3.231-1.777-3.07-1.94-2.908-1.777-2.908-1.131 1.616-.323 1.777-.162.97v.968l-.162.97v1.13h-.97l-1.454-3.715-1.616-3.393-1.939-3.392-1.777-3.07-1.94-3.393-1.616-3.23-1.292-3.555-.485-3.716-3.879-4.523-2.747-4.847-1.939-5.33-1.293-5.17-1.13-5.655-.809-5.654-.97-5.493-1.13-5.17-1.294-1.454-1.292-1.454-1.455-1.454-.97-1.292-.969-1.616-.485-1.454v-1.615l.485-1.777-.161-.97-.324-.646-.484-.646-.485-.485-1.455-.808-1.454-.323-1.454-.484-.808-.647-.647-.969-.323-.97-.485-1.292-.323-.969-.485-.97-.323-.807-1.616 2.908-.97 3.393-.808 3.392-.646 3.393-.808 3.23-.646 3.394-1.132 3.23-1.292 3.393-.808 1.131-.647 1.293-.485 1.453-.323 1.454-.808 1.131-.808 1.131-.97.808-1.454.808-1.293 2.423-1.292 2.585-1.616 2.262-1.455 2.261-1.777 2.1-1.616 2.424-1.778 2.262-1.616 2.423-1.293.323-.97.97-.97.969-.484 1.292-.808 1.131-.646 1.292-.808 1.131-.808 1.131-1.455 2.908-1.292 3.07-1.293 3.07-.97 3.392-.97 3.392-.484 3.393-.485 3.393-.162 3.392h-.808l-.484-2.585-.324-2.423-.161-2.423v-2.423l-.162-2.424v-2.262l-.161-2.261v-2.1l-3.717-2.908-2.101-3.231-1.293-3.878-.323-4.039-.162-4.362.162-4.361v-4.362l-.162-3.716 1.94-2.585 1.454-2.746 1.293-2.747 1.293-2.746 1.13-2.908 1.132-2.908 1.293-2.908 1.616-2.585 1.131-3.231 1.131-3.07.97-3.07 1.131-3.069.97-3.23 1.13-3.07 1.294-3.231 1.454-2.908 3.555-9.855-6.949-4.523L40.4 162.2l-3.232-6.462-2.262-6.786-2.263-7.108-2.424-6.947-3.555-6.624-5.171-5.492-2.747-5.17-3.394-4.685-3.717-4.685-3.393-4.524-3.07-4.846-1.778-5.008-.485-5.332 1.454-5.816.485.162.646.646.324.808.323.97.323.807.646.485h.647l1.293-.323-.324-1.454-.323-1.454v-1.293l.97-.808 1.131-.323 1.454-.484 1.293-.808 1.455-.485 1.292-.484 1.455.161 1.131.646 1.131 1.777 3.555-1.938 3.879-1.293 3.878-1.13 4.202-.97 4.04-.97 4.201-.969 4.04-.969 4.202-.97 5.494-2.746 5.495-2.746 5.494-2.908 5.656-2.746 5.656-2.585 5.98-1.939 6.302-1.292 6.787-.162H110.696l4.04.323 3.878.162 4.04.646 3.879.646 4.04 1.131 10.827 2.908 11.15 2.585 11.15 2.262 11.313 2.261L186 70.114l11.15 2.908 10.666 3.554 10.504 4.685.647-1.615.485-1.616v-3.392l-.324-1.939v-3.554l.647-1.454.808-6.785 2.262-6.3 3.232-6.14 4.363-5.331 4.848-5.008 5.495-4.2 5.656-3.555 6.302-2.423 5.333-4.362 6.14-2.747 6.303-1.777 6.626-1.13 6.464-1.131 6.625-1.131 6.303-2.1 5.979-3.07 1.94.162h2.261l2.101-.162 2.263-.162 2.1-.484 2.263-.162h2.1l2.425.485h3.716l3.717-.162 3.717-.323 3.878-.161 3.717-.485h7.757l4.04.485 1.454.969 2.263-.97 2.747-.16h2.586l2.908.322 2.748.162 2.908.161 2.748-.323 2.747-.646.808.646.323.808-4.686 1.777 2.424.646 2.747.646 2.747.324 2.909.323 2.747.161 2.747.162 2.747.323 2.91.646-.324.646-.485.647-.808.323-.808.161.97.485 1.293.323 1.292.162 1.455.161h1.293l1.454.323 1.131.485 1.131.97 13.736 5.33-.646.647-2.262-.162H408.2l-2.262-.161-1.94.161-2.262.162-1.94.646-1.938.808-1.455 1.454.647 1.454 1.13.807 1.455.323 1.94.162 1.777-.323 1.94-.162 1.939-.323 1.939.162.97.323 1.454.323 1.454.162 1.616.161h1.293l1.454.323 1.293.323 1.131.808-2.908-.161h-2.586l-2.424-.324-2.424-.161-2.424-.323h-5.01l-2.424.323-3.232.323-3.07.646-3.07.808-3.07.97-3.071.969-2.909 1.13-2.909 1.131-2.909 1.454-2.585.647-1.94 1.13-1.939 1.293-1.454 1.615-1.616 1.616-1.454 1.777-1.616 1.777-1.616 1.777v1.131l1.777-.97 1.94-.969 1.939-1.292 1.939-1.292 1.616-1.616 1.777-1.615 1.616-1.616 1.616-1.616.485-.646.97-.161.323.807-.323.97-.647.646-.161.808-4.363 4.039-3.879 4.362-3.878 4.685-3.717 4.846-3.878 4.847-3.556 4.846-3.716 4.847-3.556 4.847 6.303-3.07 6.787-2.423 7.11-2.1 7.272-1.293 7.272-.646 7.434.323 7.272 1.13 7.11 2.424 2.748.162 2.908.646 2.748.485 2.747.969 2.585.808 2.748.97 2.747.968 2.747.97 4.848-.323 5.01.323 4.524.646 4.525 1.292 4.202 1.293 4.363 1.938 4.201 1.94 4.202 2.26 1.293 1.293 1.616.97 1.94.484 2.1.485 1.94.161 2.1.485 1.777.646 1.94 1.454.808-.161h3.878l.97.323.808.485.97.807v.97l-.324.807-.646.323-.647.324-.97.161-.807.162-.97.161-.323.646-1.455-.484h-1.292l-1.455.161-1.13.647-1.294.484-.97.97-.807.969-.485 1.454v.323l.646-.323.97-.323.97-.323 1.13-.323.97-.485.97-.162h.808l.97.162-1.132 1.777-.97 1.615-1.292 1.616-1.293 1.616-1.454 1.454-1.293 1.615-1.293 1.777-.808 2.1h.808l.97-.323.97-.484.969-.485.808-.485.97-.323h.97l.969.646-2.424 2.424-2.263 2.423-2.585 2.1-2.424 2.423-2.424 2.262-2.263 2.585-1.939 2.746-1.454 3.232.808-.324.97-.323.969-.484.97-.323.807-.647.97-.484.97-.485.97-.485 1.13 1.131-1.13 1.777-1.132 1.777-1.293 1.778-1.293 1.938-1.616 1.616-1.454 1.777-1.616 1.615-1.454 1.616 1.292-.162 1.293-.484 1.131-.485 1.293.323-.161.97-.485 1.13-.808.808-.808.808-.97.646-.808.808-.646.808-.323 1.13-1.132 2.1-.97 2.262-1.454 2.1-1.454 2.262-1.94 1.777-1.938 1.94-2.101 1.615-2.1 1.615 1.292-.161 1.293-.162 1.292-.323 1.455-.323 1.293-.485 1.292-.485 1.293-.484 1.293-.323.485 1.292-5.495 4.2-5.655 3.878-5.98 3.392-5.979 3.232-6.302 2.584-6.303 2.585-6.302 2.1-6.302 2.262-4.04 2.908-4.202 2.262-4.686 1.615-4.525 1.293-4.848.808-4.848.969-4.687.97-4.524 1.292-5.333-1.131-5.333-.97-5.494-.969-5.333-.97-5.495-1.13-5.494-1.13-5.333-1.293-5.171-1.293-2.586-.97-2.1-1.13-2.263-1.615-1.939-1.454-1.94-1.778-1.938-1.777-1.94-1.938-1.939-1.454-.485.807v.97l.162.97.323 1.13.162.97.323 1.292.323 1.13.162 1.293-.808 5.654-.647 5.978-.646 5.977-.323 6.14-.485 5.977-.162 6.139v5.977l.647 6.14-.97-.162-.485-.485-.484-.808-.162-.646-.323-.97-.162-.968-.323-.808-.323-.485-.97.97.323 4.685.324 5.17.161 5.007.647 5.17.808 4.685 1.616 4.685 2.262 4.362 3.394 3.877-.647.808-1.13-.808-.809-.646-.808-.97-.808-.484.485 1.777.808 1.777.808 1.778 1.131 1.938.97 1.616 1.13 1.777.97 1.777 1.132 1.777-2.424-1.777-2.101-1.777-1.94-2.262-1.939-2.1-1.939-2.262-1.939-2.262-1.94-2.261-1.777-1.939.485 1.616.646 1.777.485 1.777.808 1.938.647 1.939.646 1.939.646 1.938.647 1.939 2.747 3.231 2.909 3.393 2.747 3.392 2.909 3.554 2.747 3.231 2.909 3.393 3.07 3.231 3.394 3.231v1.131l-1.455-1.13-1.454-.809-1.616-.646-1.454-.484-1.616-.647-1.455-.646-1.454-.97-1.293-1.13-.646.646 4.686 5.008 5.171 5.17 5.171 4.847 5.333 4.846 5.171 4.847 5.172 5.008 4.848 5.008 5.01 5.493 1.292 1.13 1.454.97.647.485.646.646.485.646.646 1.131-.646.646-1.454-.969-1.293-.808-1.293-.646-1.293-.485-1.454-.646-1.293-.646-1.293-.808-1.293-.646-.323.646 1.778 1.616 2.262 1.938 2.101 1.616 2.424 1.939 2.1 1.777 2.102 2.1 1.777 2.1 1.778 2.585-1.293.161h-1.131l-1.293-.484-.97-.485-1.13-.808-.97-.484-1.132-.647h-.97l-2.1-.484-1.94-.162-1.938-.161-1.778-.162-1.94-.323-1.615-.323-1.778-.485-1.454-.484.485.807.808.647.808.484.97.646.807.485.808.646.323.647.324.969H343.238l-.97.161h-1.939l-.97-.323-.969-.161-.485.97.162.645.646.485.97.485.808.323.808.484.323.485.323 1.13-2.424-.484-2.1-.323-2.425-.484-2.1-.324-2.263-.646-2.1-.484-2.263-.808-2.1-.808.322.808.647.97.646.645.97.808.646.646.808.808.485.97.485 1.13-3.232-.484-2.909-.808-2.909-1.131-2.585-.97-2.91-1.292-2.746-1.13-2.748-1.293-2.747-.97z" fill-rule="evenodd"/><path d="M260.66 333.77l-7.433-9.855 5.656 3.23 5.494 3.717 5.171 4.038 5.333 4.362 5.171 4.04 5.495 3.876 5.494 3.231 6.141 2.908 2.909 1.454 3.393 1.616 3.232 1.13 3.394 1.455 3.07 1.292 3.232 1.777 2.748 1.939 2.908 2.585-8.08-3.231-8.08-3.07-8.08-3.392-7.756-3.393-7.757-4.039-7.434-4.523-7.433-5.332-6.787-5.816z" fill="#fff0ff" fill-rule="evenodd"/><path d="M234.643 316.806l7.918 6.624 8.08 6.462 8.08 6.14 8.242 5.977 8.241 5.331 8.727 5.331 8.726 4.847 9.211 4.362 2.748 3.554-10.181-3.554-9.696-4.2-9.696-5.17-9.211-5.655-8.888-6.623-8.08-7.109-7.595-7.916-6.626-8.4zM310.756 356.225l-5.17-1.777-5.172-1.777-5.01-2.423-4.848-2.423-5.01-2.908-4.686-3.231-4.363-3.555-4.201-3.877-.647-.97-.485-.807-.484-.97-.485-.807-.485-.97-.323-.807-.323-.97v-.807l3.716 2.423 3.556 2.747 3.555 2.746 3.555 2.908 3.555 2.262 3.879 2.423 3.878 1.777 4.525 1.454 3.878 2.746 4.363 2.262 4.364 1.939 4.686 1.938 4.525 1.778 4.525 2.1 4.201 2.585 4.04 3.23-3.232-.807-3.07-.808-2.909-.97-2.909-.969-2.909-1.13-2.747-1.131-2.747-1.293-2.586-1.13zM286.516 331.67l6.303 3.23 6.464 3.393 6.464 3.393 6.625 3.392 6.626 3.393 6.626 3.392 6.625 3.393 6.626 3.393 3.07 3.23-7.595-2.907-7.272-2.585-7.434-2.908-7.11-2.908-7.272-3.716-6.626-4.039-6.302-5.17-5.818-5.977zM221.877 315.03l6.787 5.33 6.787 5.655 6.787 5.493 6.949 5.654 6.787 5.17 7.11 5.331 7.11 4.847 7.434 4.846 6.141 5.655-8.726-4.362-8.565-4.685-8.726-5.17-8.08-5.493-8.08-6.3-7.272-6.624-6.787-7.432-5.656-7.916zM305.1 324.56l6.141 4.201 6.141 4.362 6.14 4.362 6.303 4.362 6.303 3.877 6.464 3.878 6.464 3.23 6.787 3.07 2.909 3.878-7.272-3.716-6.95-3.716-6.948-4.039-6.626-3.877-6.787-4.523-6.625-4.686-6.303-5.17-6.14-5.492zM286.516 317.13v-1.131l2.91 2.423 3.07 2.746 3.07 2.747 3.07 2.746 3.07 2.262 3.233 2.423 3.232 1.939 3.555 1.615 4.525 2.908 4.686 2.908 4.687 2.908 4.686 2.908 4.686 2.747 4.848 2.746 4.848 2.746 4.848 2.908-9.21-2.584-8.727-3.232-8.565-4.038-8.08-4.685-7.918-5.493-7.272-6.14-6.95-6.785-6.302-7.593zM223.008 331.023l-3.717-3.554-3.394-3.393-3.393-3.554-3.07-3.554-2.91-3.716-2.585-3.716-2.586-3.877-1.939-3.716 1.778.97 1.777 1.615 1.778 1.777 1.94 1.939 1.615 1.939 1.778 1.938 1.616 1.939 1.616 1.939 5.656 4.362 5.494 4.846 5.495 4.685 5.494 5.008 5.333 4.685 5.656 4.685 5.817 4.362 6.303 4.04.646.645.97.808.808.646.97.808.646.808.808.808.646.97.808.968-5.656-3.07-5.333-3.23-5.332-3.393-5.172-3.23-5.332-3.717-5.01-3.715-5.171-3.878-4.848-3.877z" fill="#fff0ff" fill-rule="evenodd"/><path d="M191.657 311.475l-1.454-2.1-1.293-2.1-1.454-2.1-1.131-2.1-1.293-2.262-.97-2.262-.97-2.262-.646-2.262 4.687 6.462 5.494 6.301 5.818 5.654 6.464 5.816 6.625 5.332 6.626 5.492 6.625 5.493 6.626 5.978 1.454 1.13 1.778 1.293 1.778.97 1.777 1.453 1.616 1.131 1.455 1.616 1.292 1.777.97 2.1-6.949-4.362-6.787-4.362-6.787-4.523-6.626-4.685-6.787-5.17-6.14-5.493-6.142-5.816-5.656-6.139z" fill="#ffdeff" fill-rule="evenodd"/><path d="M305.1 321.815l-9.21-10.017-8.08-10.5-7.434-11.148-6.303-11.309-5.817-11.955-4.848-11.955-4.363-12.44-3.394-12.439-1.454-4.846-.97-4.685-.808-5.009-.323-4.846-.323-5.008.161-5.009.485-4.846.808-4.847.97-.646 1.292-.323 1.455-.162h2.747l1.454.162h1.455l1.616.323 1.13 21.002 3.071 20.679 4.848 19.87 7.11 19.226 8.889 18.094 11.312 16.963 13.412 15.832 15.999 14.378 1.939 1.293 2.1 1.13 2.102 1.132 2.262 1.13 2.1.97 2.263 1.13 2.263 1.293 2.262 1.454-.97 2.585-5.494-2.908-5.333-2.908-5.171-3.393-5.171-3.392-5.171-3.716-5.01-3.554-5.01-3.554-4.848-3.231z" fill="#ff70ff" fill-rule="evenodd"/><path d="M303.646 305.498l-9.211-12.763-7.595-13.247-6.464-13.733-5.01-14.055-4.04-14.863-2.586-15.186-1.615-15.509-.485-15.832 7.433-1.777-.97 9.693.162 9.693.808 9.37 1.455 9.532 1.777 9.209 2.424 9.208 2.586 8.886 2.747 9.047 5.171 11.47 6.303 11.147 7.11 10.501 8.242 10.178 8.564 9.693 9.212 9.532 9.372 9.37 9.696 9.37-6.625-3.393-6.303-3.715-6.302-4.362-5.818-4.847-5.817-5.331-5.333-5.493-4.848-5.977-4.04-5.816z" fill="#ff70ff" fill-rule="evenodd"/><path d="M170.326 292.573l-.808-1.292-.485-1.293-.484-1.292-.162-1.292-.323-1.454.161-1.454.162-1.293.485-1.292 3.555 8.562 5.171 8.078 5.98 7.754 6.787 7.432 7.11 6.785 7.757 6.785 7.433 6.14 7.434 6.138 1.778 3.07-7.757-4.685-7.595-5.17-7.272-5.816-6.788-6.3-6.464-6.786-5.817-6.946-5.333-7.27-4.525-7.109z" fill="#ffdeff" fill-rule="evenodd"/><path d="M250.965 302.59l-7.596-10.501-6.302-10.824-5.494-11.47-4.04-11.633-3.394-12.278-1.94-12.44-1.13-12.762.161-12.601-.646-2.262-.323-1.939-.162-1.938v-5.978l.162-1.938.161-1.939.97-.646 1.131-.323 1.131-.162h2.424l1.131.162 1.132.161 1.292.485-.808 15.51.808 15.347 2.101 14.863 3.555 14.54 4.687 13.893 5.979 13.409 7.11 12.924 8.565 12.44 31.027 35.865-6.14-3.878-5.98-3.877-5.979-4.2-5.494-4.2-5.333-4.847-4.848-5.17-4.363-5.654-3.555-6.14z" fill="#ff4fff" fill-rule="evenodd"/><path d="M248.864 281.265l-5.171-10.178-4.202-10.663-3.394-10.985-2.424-11.31-1.777-11.631-.808-11.632v-11.632l.808-11.47 1.454-.323 1.455-.323.646-.162.97-.161.808-.162h.97l-.324 7.27.162 7.755.161 7.593.647 7.754.808 7.432 1.454 7.431 1.94 7.27 2.585 7.27 3.232 8.4 3.878 8.401 4.202 8.078 4.848 8.078 5.01 7.593 5.494 7.754 5.817 7.432 6.303 7.431.646 5.332 2.262 2.584 2.424 2.747 2.101 2.585 2.424 2.746 2.263 2.423 2.424 2.424 2.585 2.261 3.07 2.1-9.21-4.523-8.242-5.493-7.757-6.785-6.949-7.108-6.625-8.078-5.98-8.4-5.817-8.563-5.171-8.562z" fill="#ff4fff" fill-rule="evenodd"/><path d="M250.318 318.907l-4.848-6.463-4.201-6.3-4.04-6.462-3.879-6.3-3.878-6.625-3.879-6.623-3.878-6.624-3.717-6.462-2.424-8.562-1.939-8.563-1.616-8.724-.97-8.562-.808-8.724-.161-8.724.161-8.724.647-8.724.97-6.785h6.14l.162 5.816.323 5.978.323 5.654.485 5.816.323 5.493.323 5.816.162 5.816.323 6.139 1.131 7.27 1.616 7.27 1.94 6.946 2.424 6.947 2.585 6.624 3.232 6.623 3.394 6.301 4.04 6.462 2.909 4.039 3.07 4.362 2.747 4.2 2.909 4.362 2.909 4.04 3.07 4.2 3.232 3.877 3.879 3.877 2.585 6.14-17.776-12.117z" fill="#ff30ff" fill-rule="evenodd"/><path d="M212.665 280.618l-5.332-10.5-4.04-10.663-3.232-11.147-2.101-11.47-1.131-11.794v-11.793l.97-11.794 2.1-11.47 9.858.646-1.293 9.855-.485 10.34-.162 10.177.808 10.501 1.132 10.016 2.1 10.178 2.586 9.532 3.555 9.37 3.232 6.3 3.555 6.463 3.717 6.3 3.879 6.463 3.878 6.139 4.202 6.139 4.201 6.139 4.525 6.139.323 1.292.647 1.293.97 1.292.969 1.292.97 1.131.969 1.293.808 1.292.808 1.454-7.11-5.331-6.464-5.331-6.141-5.978-5.656-5.977-5.333-6.624-4.686-6.785-4.202-7.109-3.394-7.27z" fill="#ff30ff" fill-rule="evenodd"/><path d="M242.077 230.375l-.97-3.07-.323-3.069-.323-3.07v-2.907l-.162-3.07-.162-3.07-.323-2.907-.485-2.908v-5.817l.324-1.938v-1.938l.484-1.778.324-1.777.646-1.615h3.231l1.455.161 1.132-.161h3.393l-.323 13.57 1.293 13.248 2.262 12.762 3.555 12.763 4.04 12.117 5.01 11.955 5.656 11.47 6.14 11.47 2.586 3.878 2.747 4.038 2.748 3.878 2.908 4.038 2.91 3.716 3.07 3.878 3.393 3.715 3.555 3.878.162.807.323.97.485 1.13.646 1.131.485.97.97.969.808.97 1.131 1.13-11.958-9.693-10.828-10.501-9.857-11.632-8.565-12.44-7.757-13.247-6.464-13.57-5.332-14.055-4.04-14.379z" fill="#ff70ff" fill-rule="evenodd"/><path d="M155.136 273.025l2.747 4.362 2.747 4.685 2.909 4.685 3.07 4.685 2.91 4.524 3.07 4.523 3.232 4.524 3.393 4.685 2.424 2.908 2.909 2.746 2.747 2.424 2.909 2.585 2.586 2.423 2.747 2.585 2.262 2.908 2.424 3.392-7.272-6.139-7.272-6.3-7.11-6.786-6.464-6.785-5.98-7.593-5.009-7.754-3.717-8.401-2.262-8.886z" fill="#ffdeff" fill-rule="evenodd"/><path d="M196.667 268.502l-3.07-9.37-2.586-9.532-2.262-10.016-1.455-9.855-.97-10.016.162-10.017 1.131-10.016 2.586-9.693h7.434l-2.424 12.763-.97 12.924.323 12.763 1.94 12.924 2.747 12.278 4.04 12.116 4.848 11.31 5.979 10.985 2.262 4.523 2.909 4.685 2.909 4.524 3.07 4.523 2.909 4.362 3.07 4.524 2.748 4.523 2.747 4.847-7.757-5.493-6.626-5.816-5.979-6.624-5.171-6.946-4.686-7.593-3.879-7.593-3.232-8.078-2.747-7.916z" fill="#ff0fff" fill-rule="evenodd"/><path d="M200.545 300.166l-2.424-2.746-1.939-2.746-1.939-3.07-1.454-2.908-1.455-3.231-1.293-3.231-1.454-3.231-1.131-3.07-.647-2.746-.646-2.585-.808-2.746-.646-2.585-.97-2.747-.808-2.584-.97-2.747-.646-2.585-1.94-8.562-1.292-8.4-.97-8.24-.484-8.24v-8.239l.808-8.077 1.454-8.078 2.424-7.916 6.464.808-2.586 10.985-.97 11.31.162 11.146 1.293 11.47 1.94 10.986 2.908 11.147 3.232 10.663 3.879 10.663 1.939 5.008 2.262 5.17 2.424 4.846 2.909 5.008 2.909 4.685 3.07 4.685 3.394 4.524 3.555 4.523 2.424 4.2-3.232-2.1-2.747-2.423-2.909-2.746-2.586-2.747-2.585-2.908-2.586-2.746-2.747-2.746-2.586-2.1z" fill="#ff0fff" fill-rule="evenodd"/><path d="M141.885 264.14l1.454 3.07 1.454 3.23 1.455 3.07 1.616 3.231 1.616 2.908 1.777 3.07 1.778 2.746 2.1 2.908 3.233 4.039 3.393 4.039 3.394 3.877 3.555 4.039 3.232 3.877 3.232 4.2 3.07 4.2 3.071 4.686-6.787-5.978-6.464-6.3-6.303-6.462-5.656-6.786-5.17-7.27-4.202-7.592-3.07-8.24-1.778-8.562z" fill="#ffdeff" fill-rule="evenodd"/><path d="M180.992 289.02l-1.293-4.04-1.293-3.877-1.293-3.877-1.292-3.878-1.293-4.038-1.131-3.878-.97-4.038-.646-3.878.97-.646.484-.808-.323-1.13-.323-.97-.647-.97-.485-.807-1.454-1.616-1.131-1.292-1.131-8.24-.485-8.077-.162-8.24.323-8.077.647-8.239 1.454-7.916 1.616-7.755 2.424-7.431 1.455-.162 1.454.647 1.293.969 1.454 1.454-1.939 7.431-1.293 7.916-.808 8.078-.323 8.24v8.239l.646 8.4.97 8.078 1.616 8.24 2.424 7.43 2.424 7.594 2.586 7.431 2.908 7.593 2.91 7.27 3.554 7.27 3.556 7.108 4.201 6.947 4.363 5.978-4.04-3.07-3.393-3.231-3.394-3.554-2.909-3.554-3.07-3.878-3.07-3.715-3.07-3.878-3.071-3.554z" fill="#f0f" fill-rule="evenodd"/><path d="M132.997 258.162l3.07 6.463 3.232 6.623 3.232 6.462 3.555 6.624 3.717 6.3 4.04 6.301 4.525 5.816 5.171 5.816.646 1.293.97 1.615.646 1.454.324 1.293-5.495-6.463-5.333-6.3-5.332-6.624-4.687-6.462-4.525-7.108-3.555-7.27-2.747-7.755-1.454-8.078z" fill="#ffdeff" fill-rule="evenodd"/><path d="M288.294 264.948l-3.07-9.37-2.91-9.37-2.585-9.532-1.939-9.532-1.454-9.855-.808-9.693v-9.855l1.13-9.854h6.303l.323 2.423v2.585l-.484 2.262-.485 2.261-.97 2.1-.97 2.262-.807 2.1-.485 2.424.323 14.055 1.778 13.732 2.747 13.086 4.363 12.924 5.333 12.117 6.949 11.793 8.08 11.147 9.534 10.663-5.333-4.04-4.525-4.361-4.201-5.008-3.555-5.17-3.556-5.654-3.07-5.493-2.909-5.654-2.747-5.493z" fill="#de00ff" fill-rule="evenodd"/><path d="M121.361 248.63l.97 2.263 1.131 2.746.97 2.746 1.131 2.908 1.131 2.908 1.293 2.908 1.293 2.747 1.616 2.746 1.94 3.877 2.585 4.04 2.585 3.715 2.909 3.877 2.747 3.716 2.909 3.716 2.586 3.877 2.747 4.039v4.039l-5.818-6.301-5.333-6.462-4.686-6.785-4.04-6.947-3.717-7.432-2.909-7.431-2.424-7.755-1.616-7.754z" fill="#ffdeff" fill-rule="evenodd"/><path d="M162.246 254.285v-1.777l6.626 3.554.97 5.493 1.454 5.493 1.454 5.331 1.94 5.493 1.777 5.331 1.778 5.332 1.777 5.33 1.616 5.494 1.778 2.908-4.04-5.655-3.555-5.654-3.232-5.816-2.586-5.816-2.586-6.14-2.1-6.138-1.778-6.462-1.293-6.3z" fill="#f0f" fill-rule="evenodd"/><path d="M119.584 266.402l-1.131-2.908-.97-2.908-1.131-2.908-.808-2.747-.97-2.908-.485-2.746-.484-2.746.161-2.585 2.424 5.654 2.424 5.816 2.424 5.816 2.747 5.816 2.748 5.493 2.908 5.654 3.07 5.654 3.394 5.655.647 3.07-2.747-3.07-2.263-3.07-2.424-3.392-1.939-3.231-2.1-3.393-1.94-3.393-1.778-3.392-1.777-3.231z" fill="#ffdeff" fill-rule="evenodd"/><path d="M139.784 243.623l8.241 3.23.647 3.232.97 3.554.969 3.393.97 3.877.646 3.554.808 4.039.323 3.877.323 4.2.324.97.323 1.13.323 1.132.323 1.292.162 1.13.485 1.293.323 1.131.485 1.293-3.394-5.008-3.07-5.009-2.91-5.17-2.262-5.17-2.1-5.492-1.455-5.331-1.131-5.655-.323-5.492z" fill="#ff00de" fill-rule="evenodd"/><path d="M150.773 248.63l.97.162 1.13.323.97.324 1.131.484.97.323 1.293.323 1.13.162 1.294.323.323 4.362 1.131 4.524 1.293 4.2 1.777 4.362 1.293 4.039 1.131 4.2.162 4.039-.646 4.362-3.556-4.039-2.747-4.039-2.262-4.523-1.778-4.524-1.616-4.846-1.131-4.847-1.131-4.847-1.131-4.846z" fill="#f0f" fill-rule="evenodd"/><path d="M286.516 186.433l3.556-1.454.646 2.585.323 2.746-.323 2.585-.485 2.585-.97 2.423-.807 2.585-.808 2.585-.324 2.585.162 7.754.323 8.078.647 7.916 1.13 8.078 1.617 7.593 2.747 7.431 3.394 6.785 4.848 6.3-.162 1.293.162 1.293.323 1.13.485 1.293.484 1.131.647 1.13.646 1.132.647 1.292-6.95-9.693-5.009-10.34-3.717-10.985-2.1-11.47-1.455-11.794-.323-11.632v-11.632l.646-11.308z" fill="#de00ff" fill-rule="evenodd"/><path d="M281.184 206.95v-1.939l.161-.969.323-.808.647-1.777.97-1.615-.485 9.37.484 9.37 1.293 9.208 1.778 9.37 2.1 9.048 2.748 9.047 2.747 8.885 2.909 8.885-4.202-7.593-3.232-7.754-2.585-8.078-1.778-8.078-1.454-8.4-.97-8.563-.97-8.885-.484-8.724z" fill="#fff0ff" fill-rule="evenodd"/><path d="M107.14 240.392l1.455 4.362 1.94 4.361 1.777 4.362 2.1 4.524 1.617 4.362 1.616 4.523 1.292 4.524.97 4.846-3.555-3.877-2.424-4.039-1.94-4.362-1.292-4.523-1.131-4.847-.808-4.846-.808-4.847-.808-4.523z" fill="#ffdeff" fill-rule="evenodd"/><path d="M129.441 238.614l.647.647.97.807.97.485.969.485.97.323.969.323.97.323.969.485.323 3.23.485 3.393.646 3.393.808 3.393.485 3.23.647 3.393.323 3.393.323 3.554-1.94-3.877-1.938-3.554-1.94-3.716-1.616-3.554-1.616-4.039-1.292-3.877-.808-4.04-.324-4.2z" fill="#ff00de" fill-rule="evenodd"/><path d="M120.877 231.183l3.232 2.262 2.262 2.908 1.454 3.23.808 3.878.162 3.877.162 3.878.161 3.715.647 3.878 2.262 8.885-1.94-4.362-1.938-4.362-1.94-4.523-1.454-4.362-1.454-4.685-1.132-4.524-.97-4.846-.322-4.847zM292.657 183.848l3.879-.97.97 2.1.484 2.262-.162 2.1-.323 2.262-.808 2.1-.646 2.262-.485 2.262-.162 2.423-.97 7.593v7.755l.809 7.755 1.293 7.754 1.292 7.593 1.616 7.593 1.455 7.593 1.293 7.755-3.232-9.37-2.263-9.532-1.616-9.855-.97-9.855-.646-10.016-.323-10.016-.323-10.016-.162-9.532z" fill="#de00ff" fill-rule="evenodd"/><path d="M41.693 206.627l4.686-7.432-1.616 5.978-.97 6.462-.807 6.462-.324 6.785-.484 6.463v13.085l.161 6.301-.323 1.777-.323 1.777-.647 1.777-.484 1.939-.647 1.615-.485 1.778-.646 1.938-.323 1.939-.162-7.109v-7.27l.323-7.43.485-7.27.485-7.594.646-7.431.647-7.432.808-7.108z" fill="#4000ff" fill-rule="evenodd"/><path d="M31.35 251.377v.808l.647.808.646.646.808.808 1.293 1.454.162 1.615-.97-.646-.646-.646-.485-.808-.162-.646-.485-.97-.161-.807-.485-.97-.162-.646z" fill="#ffdeff" fill-rule="evenodd"/><path d="M132.673 238.614l-.97-.969-.807-.646-.97-.808-.808-.646-.97-.808-.969-.646-.808-.808-.485-.646 3.394 1.292 3.393 1.616 3.556 1.616 3.878 1.938 3.555 1.616 3.879 1.615 3.878 1.293 4.04 1.454.485-.808v-.808l-.485-.808-.323-.484-1.293-.808-.97-.808-1.292-.808-.97-.807-1.131-.97-.97-.969-.97-.808-.646-.484 2.101 1.938 2.747 1.939 2.747 1.615 3.07 1.777 2.748 1.778 2.909 2.1 2.424 2.585 2.262 3.07 1.778 1.453-4.525-2.585-4.525-2.1-4.686-1.939-4.525-1.615-4.848-1.777-4.686-1.616-4.848-1.938-4.364-1.778z" fill="#fff0ff" fill-rule="evenodd"/><path d="M111.02 224.075l2.261.969 1.94 1.454 1.454 1.777 1.293 2.1.808 2.1.646 2.424.485 2.585.646 2.584-.808 1.454.324 1.616.161 1.616-.323 1.615-.485.808-.161.97-.162.968v1.94l.323.968.323 1.131.485 1.131-1.777-3.716-1.455-3.715-1.454-3.716-1.131-3.716-1.132-3.877-.808-3.877-.97-3.878-.484-3.715z" fill="#bf00ff" fill-rule="evenodd"/><path d="M289.102 206.304l2.1-7.109.324 6.463.485 6.623.323 6.462.485 6.463.485 6.3.646 6.3.97 6.301 1.292 6.3-2.585-5.007-1.778-5.17-1.293-5.493-.646-5.493-.485-5.816-.161-5.654-.162-5.816v-5.654z" fill="#fff0ff" fill-rule="evenodd"/><path d="M32.805 249.6l.485-1.777.323-1.615v-1.778l.161-1.777-.161-1.938v-3.716l.323-1.616.162-3.07.323-2.907.485-3.07.646-2.908.485-2.907.808-2.908.808-2.908 1.131-2.747-.323 5.17-.323 5.331-.485 5.331-.323 5.332-.485 5.33-.323 5.332-.162 5.493v5.654l-1.131-.484-.485-.323-.485-.808v-.646l-.323-.97-.162-.807-.484-.808-.485-.485z" fill="#0000b3" fill-rule="evenodd"/><path d="M96.475 216.643l1.293.808.808.97.161 1.292.162 1.454-.162 1.454v3.069l.485 1.616.808 2.423.647 2.585.484 2.585.485 2.746.485 2.423.808 2.585 1.131 2.424 1.616 2.423.647 3.231-2.748-3.716-1.939-3.877-1.454-4.362-.97-4.2-.808-4.524-.646-4.523-.647-4.524-.646-4.362z" fill="#ffdeff" fill-rule="evenodd"/><path d="M159.014 221.974v-5.17l.162-5.007.161-5.17.485-4.847.485-4.846.97-4.685.97-4.685 1.292-4.362.97-.647h1.939l1.131.485.97.323 1.13.485 1.132.161 1.293.324-2.424 7.27-1.778 7.754-1.454 7.916-.808 8.24-.485 8.239.162 8.239.646 8.239 1.131 8.4-3.393-2.584-2.101-2.908-1.293-3.393-.485-3.392-.323-3.716v-3.554l-.162-3.716-.323-3.393z" fill="#f0f" fill-rule="evenodd"/><path d="M51.712 190.31l1.778-1.777-1.616 6.624-1.132 6.785-.97 7.108-.646 7.27-.646 7.108-.323 7.109-.162 7.108.162 6.947-2.91 5.331-.484-7.431-.161-7.593v-7.755l.484-7.593.647-7.754 1.454-7.432 1.94-7.27 2.585-6.785z" fill="#5e00ff" fill-rule="evenodd"/><path d="M30.38 230.052l.162-1.13.485-.808.485-.97.97-.646-.485 2.585-.162 2.746V237.484l-.161 2.584-.162 2.747-.485 2.585-.323 2.746-.808-2.423-.162-2.262-.161-2.262.161-2.1v-2.262l.324-2.261.161-2.262.162-2.262z" fill="#ffdeff" fill-rule="evenodd"/><path d="M106.01 220.52l1.292.808.97 1.454.485 1.616.323 2.262v2.1l.161 2.423.162 2.262.808 2.262 1.454 10.016-1.292-3.07-.97-3.07-1.131-3.069-.647-3.07-.808-3.23-.323-3.231-.485-3.231v-3.232z" fill="#9e00ff" fill-rule="evenodd"/><path d="M101.808 212.281l-4.687-4.362-3.878-4.362-3.555-4.846-2.909-4.847-2.909-5.17-2.747-5.17-2.747-5.007-2.909-4.847-.808-.97-.646-.484-.647-.808-.323-.646.97-.485.97.162.807.485.97.646.97.323.97.323h.969l1.454-.323.97-.97.808-.969.646-1.13.647-.97.484-1.13.808-.809.97-.484h1.454l2.263 2.423 2.262 2.585 2.1 2.585 2.102 2.746 1.939 2.585 2.262 2.746 2.424 2.424 2.747 2.585-.646.646-.485 1.13.97.97 1.131.97 1.131.807 1.455.97 1.292.807 1.293.97 1.293.969 1.454 1.292-1.939-.646-1.616-.646-1.777-.646-1.455-.485-1.777-.646-1.616-.323-1.778-.162-1.616.323v1.777l3.232 2.1 3.394 2.424 3.393 2.1 3.555 2.423 3.232 2.262 3.394 2.585 3.07 2.423 3.07 2.908-3.393-2.1-3.393-1.939-3.717-1.938-3.555-1.939-4.04-2.1-3.879-1.939-3.878-1.938-3.555-1.778h-.485l1.293 1.454 1.777 1.616 1.778 1.13 1.94 1.293 1.938.97 1.94 1.292 1.777 1.292 1.778 1.616 4.848 3.877 4.848 4.04 4.848 4.038 5.01 4.039 4.686 4.039 4.848 4.2 4.686 4.362 4.686 4.523-6.464-3.23-6.464-2.909-6.464-2.908-6.302-2.908-6.302-3.554-5.98-3.877-5.656-4.523-5.01-5.332z" fill="#de00ff" fill-rule="evenodd"/><path d="M52.682 200.326v4.04l.323 4.2.161 4.361.485 4.362.323 4.362.485 4.362.485 4.362.646 4.362-.161 1.131-.323 1.131-.647.97-.485.969-.808.807-.808.97-.646.969-.485 1.13-.485-5.492-.161-5.331-.162-5.331.162-5.332v-5.331l.485-5.331.646-5.332.97-5.008z" fill="#8000ff" fill-rule="evenodd"/><path d="M148.672 228.598l.485-1.292-.324-1.454-.484-.97-.485-.807-.162-.97.323-.807.162-5.17v-5.17l-.162-5.331.162-5.331.162-5.655.646-5.331 1.131-5.331 2.101-5.008 9.211 1.777-1.777 6.623-1.293 7.109-.97 7.27-.485 7.593-.323 7.27.162 7.593.485 7.431.97 7.431-1.778-.969-1.293-1.292-1.131-1.616-.808-1.454-1.132-1.777-.97-1.615-1.13-1.454-1.293-1.293z" fill="#f0f" fill-rule="evenodd"/><path d="M298.313 195.641l.162 5.008.485 5.17.323 5.008.485 5.332.161 5.008.162 5.331-.162 5.331-.161 5.332-1.132-5.332-.97-5.331-.646-5.331-.323-5.332-.323-5.33.323-5.009.485-5.17 1.131-4.685z" fill="#fff0ff" fill-rule="evenodd"/><path d="M101.323 220.197h1.131l.808.647.323.807.162 1.131-.162.97v1.292l-.161 1.13.485 1.132.646 13.086-.485-2.585-.485-2.585-.646-2.423-.646-2.424-.808-2.585-.324-2.584-.161-2.585.323-2.424z" fill="#9e00ff" fill-rule="evenodd"/><path d="M117.806 210.504l13.09 7.916.808-.807.323-.97-.485-1.13-.323-.647-2.909-3.07-2.909-2.746-3.07-2.746-3.07-2.424-3.232-2.423-3.232-2.262-3.232-2.1-3.232-1.777 11.796 3.231-.323-1.938-.808-1.454-1.293-1.454-1.292-1.131-1.616-1.293-1.616-1.13-1.455-.97-1.293-.97v-1.776l-.323-1.131-.808-1.131-1.13-.646-1.455-.97-1.293-.646-1.293-.97-.808-.968-1.131-2.262-1.131-1.939-1.293-1.777-1.131-1.777-1.455-1.777-1.454-1.616-1.616-1.777-1.455-1.615 2.586 1.615 2.909 1.777 3.07 1.777 3.07 1.94 2.91 1.938 3.07 2.262 2.747 2.423 2.747 2.585-1.13-.162-.97.97 1.13 1.292 1.617 1.454 1.454 1.292 1.778 1.293 1.616 1.13 1.777 1.293 1.455 1.292 1.616 1.616-1.778 1.292.485 1.131.97 1.131 1.13.646 1.293.647 1.132.484 1.13.808.97.808 1.132 1.13-.485 1.455.485 1.292.808.97 1.292 1.13 1.293.808 1.455 1.13 1.292.97.97 1.454.323.646.808.808.808.646.808 1.131-1.293-.484-1.13.484.16 1.131.647 1.293.808 1.13 1.131 1.131 1.132.97 1.13 1.292.809 1.13.97 1.455-.485 1.777.323 1.777.646 1.616 1.293 1.615 1.293 1.454 1.293 1.454 1.292 1.454 1.132 1.777-4.687-2.908-4.363-2.746-4.363-3.231-4.04-3.07-4.04-3.554-4.04-3.393-4.202-3.392-4.04-3.393z" fill="#5e00ff" fill-rule="evenodd"/><path d="M299.283 184.333l-.647-1.293v-.808l.324-.969.646-.485 1.293-1.13 1.293-1.131.646 3.07.323 3.23-.323 3.231-.323 3.231-.647 3.07-.323 3.392-.323 3.07.323 3.393.323 3.23.485 3.393.162 3.393.323 3.716.162 3.554.161 3.554v3.554l.485 3.554-1.293-6.139-.646-5.816-.485-5.816v-5.815l-.323-5.978-.323-5.977-.485-6.14-.808-6.138z" fill="#de00ff" fill-rule="evenodd"/><path d="M56.56 184.979h1.131l5.656 40.55-5.656 8.077-.97-6.139-.807-5.977-.647-6.14-.323-6.138-.162-6.3.162-6.14.485-5.977 1.13-5.816z" fill="#9e00ff" fill-rule="evenodd"/><path d="M59.792 184.979l2.586-.646.808 3.23.97 3.555.807 3.554.97 3.716.808 3.554.808 3.877.97 3.716.969 3.877-.162 1.293-.161 1.292-.485 1.292-.485 1.293-.808 1.13-.646 1.455-.808 1.13-.485 1.455-1.131-4.847-.97-4.685-.808-4.847-.646-4.846-.647-5.008-.484-5.009-.485-4.846-.485-4.685z" fill="#bf00ff" fill-rule="evenodd"/><path d="M142.693 217.29h1.292l.485-.97.162-.808-.485-.807-.323-.647-1.616-1.454-.97-1.292-1.777-2.423-.97-2.424-.485-2.746.162-2.585.161-2.908.485-2.585.323-2.423.324-2.262v-4.2l-.162-2.1.162-1.939v-2.1l.323-2.1.485-1.94.97-1.615 1.13-.161h2.586l1.293.323.97.323 1.13.808.97.808.808 1.454-1.616 4.846-1.131 5.17-.808 5.331-.323 5.331-.485 5.332v11.147l.485 5.816-3.555-4.2z" fill="#ff00de" fill-rule="evenodd"/><path d="M89.365 205.658v-4.362l1.777 1.615 1.778 1.939 1.777 2.1 1.94 2.1 1.616 2.1 1.777 2.262 1.455 2.1 1.616 2.424-2.101-1.131-1.94-1.293-1.939-1.454-1.777-1.454-1.94-1.777-1.454-1.615-1.454-1.777-1.131-1.777z" fill="#ffdeff" fill-rule="evenodd"/><path d="M305.1 187.887l.808 2.423.485 2.746v5.816l-.646 2.908-.485 3.07-.485 2.746-.485 2.908-.323-3.07-.161-2.907V195.964l.323-2.584.323-2.908.646-2.585z" fill="#fff0ff" fill-rule="evenodd"/><path d="M323.2 195.318l-3.232-1.777-3.07-2.1-3.233-2.423-2.585-2.747-2.586-3.07-1.778-3.23-.97-3.555v-3.554h1.778l5.98 6.785 6.787 5.655 7.272 4.2 8.08 3.393 8.08 2.262 8.565 1.777 8.726 1.13 9.05.808 3.555-.646 3.717-.485 3.555-.807 3.717-.647 3.555-.969 3.717-.646 3.878-.485 3.878-.323-3.393 2.423-3.555 1.616-4.04 1.13-3.879.97-4.201.646-4.04.808-3.879 1.131-3.717 1.616-5.979-.485-5.817-.646-5.818-1.131-5.494-1.131-5.818-1.454-5.494-1.454-5.818-1.454-5.494-1.13z" fill="#bf00ff" fill-rule="evenodd"/><path d="M65.125 183.848l3.232-.97.808 3.07 1.13 3.393.97 3.392.97 3.393.485 3.393.162 3.392-.485 3.393-1.131 3.554-.97-3.231-.97-3.07-.97-3.23-.807-3.07-.97-3.393-.646-3.23-.485-3.394-.323-3.392z" fill="#9e00ff" fill-rule="evenodd"/><path d="M134.774 202.75l-7.11-6.463.646-1.454.485-1.453v-1.778l.162-1.777-.162-1.938v-1.939l.162-1.777.808-1.616.161-1.292.323-1.13.162-1.293.323-1.131.162-1.131.485-.97.484-.969 1.132-.646 5.01.97-.486 3.877-.323 3.877-.323 3.877-.162 3.878-.161 3.715-.162 3.878-.161 3.715v3.878l-1.132-.324V203.558l-.323-.808z" fill="#ff00de" fill-rule="evenodd"/><path d="M307.848 170.762l.808-1.13.97-.324 1.13.162 1.455.646 1.131.808 1.293.807 1.131.808 1.293.646 3.717 3.555 3.878 3.23 4.202 2.585 4.363 2.424 4.363 1.777 4.686 1.615 4.848 1.293 4.848 1.292 4.525-.161 4.687-.323 4.686-.647 4.686-.646 4.525-.808 4.687-.484 4.686-.323 4.848.323 5.656-.485 5.494-.808 5.333-1.454 5.333-1.615 5.01-1.939 5.17-1.939 5.01-1.777 5.333-1.454.97-1.292 1.454-.808 1.455-.646 1.616-.323 1.615-.485h1.778l1.616-.161 1.94-.162-1.455 1.131-1.293 1.13-1.454.97-1.455.97-1.616.807-1.616.97-1.454.807-1.454.97-7.11 3.715-7.273 2.908-7.757 2.262-7.756 1.777-8.08 1.293-8.08 1.292-7.919 1.454-7.595 2.1-9.211-.646-8.888-1.13-8.727-1.94-8.241-2.423-8.08-3.554-7.272-4.523-6.787-5.493-5.656-6.624z" fill="#de00ff" fill-rule="evenodd"/><path d="M56.237 172.862v3.393l-.647 3.392-1.454 2.908-1.616 3.07-1.94 2.585-1.938 2.908-1.94 2.908-1.454 3.07.97-3.07.97-3.231.807-3.393.97-3.393.97-3.392 1.615-3.07 2.101-2.746 2.586-1.939zM78.7 187.402v-.97l-.647-1.292-.485-1.292-.485-1.293-.485-1.13-.484-1.293-.485-1.292-.323-1.293-.162-1.13 10.18 19.224-1.777-.323-1.131-.485-.97-1.13-.484-.97-.647-1.454-.485-1.454-.646-1.292-.485-1.131z" fill="#fff0ff" fill-rule="evenodd"/><path d="M319.968 173.185l-1.132-.969 2.91 1.454 2.908 1.616 2.909 1.615 2.909 1.777 2.747 1.454 2.909 1.777 2.908 1.777 2.91 1.939 19.23 2.908-5.818.485h-5.656l-5.494-.97-5.333-1.454-5.333-2.585-4.686-2.908-4.687-3.715-4.201-4.2z" fill="#ffdeff" fill-rule="evenodd"/><path d="M73.69 179.324l.808 1.454.808 1.777.484 1.616.485 1.777v3.554l-.161 1.777-.324 1.939-.97 1.777-.807-2.1-.808-1.939-.808-2.1-.647-2.1-.484-2.1v-1.939l.646-1.939 1.778-1.454z" fill="#8000ff" fill-rule="evenodd"/><path d="M123.785 171.408l.808.323.97.323.97.162 1.13.323.647.323.647.646.161.647v1.292l-2.1 16.963-2.586-1.938-1.616-2.262-.647-2.585v-2.746l.324-2.908.484-2.908.485-2.908.323-2.747z" fill="#de00ff" fill-rule="evenodd"/><path d="M338.067 180.294l-12.767-7.432 8.565 2.908 9.211 2.908 9.212 2.585 9.534 2.262 9.534 1.13 9.535.162 9.534-1.13 9.535-2.586 5.494-2.1 5.656-1.938 5.333-2.262 5.494-2.262 5.171-2.746 5.172-2.908 5.01-3.07 5.009-3.392.97-1.293 1.13-1.292 1.132-1.293 1.454-.969 1.293-1.13 1.454-.809 1.455-.807 1.616-.485-1.132 1.615-.97 1.94-.969 2.1-.97 2.1-1.13 1.938-1.455 2.1-1.778 1.939-2.1 1.777-2.91.97-2.585 1.453-2.424 1.454-2.424 1.777-2.585 1.293-2.586 1.292-2.747.808-2.747.323-7.434 3.07-7.433 2.423-7.434 1.777-7.434 1.292-7.918.485-7.757.485h-16.483l-2.909-.646-2.747-.485-2.747-.646-2.747-.485-2.748-.97-2.585-.807-2.424-1.13-2.424-1.293z" fill="#f0f" fill-rule="evenodd"/><path d="M185.678 186.756l-1.939.323-1.454-.162-1.455-.484-1.293-.808-1.454-1.13-1.293-.97-1.293-.97-1.292-.484-2.91-.323-2.746-.485-2.586-.646-2.424-.646-2.586-.808-2.585-.646-2.909-.485-2.909.161-3.07-2.746-3.394-1.615-4.04-.808-3.878-.323-4.04-.485-3.879-.646-3.555-1.454-2.909-2.262h-1.777l-1.616-.323-1.455-.97-1.292-.807-1.616-.97-1.455-.323-1.777.162-1.778 1.13-.97.647-.484.97-.485.969v1.13l-.323.808-.485.97-.647.484-.97.485-1.777-1.13-1.777-.97-1.778-.97-1.778-.807-1.777-1.131-1.616-.97-1.778-1.13-1.454-1.131.485-1.293.808-1.292.484-.485.647-.323.808-.323.97.162v-1.454l-.485-1.293-.647-1.292-.646-.97-1.616-1.292-1.616-1.13-1.778-1.132-1.616-.97-1.939-.807-1.94-.323h-1.938l-1.778.808h-1.131l-.646-.485.323-1.454.808-.97.808-.968 1.13-.485.97-.808.97-.646.485-.97.485-1.13-.647-1.293-.161-1.13v-1.293l.485-.97.323-1.292.646-.97.485-.968.646-.97 1.455-.969-.162 4.039 1.131 3.716 1.778 3.392 2.585 3.231 2.748 2.908 3.232 2.908 2.908 2.747 2.91 2.908.807-.162h1.778l.97.323H110.856l.485-.323.647-.485h.97l.969.162h.97l1.13.323h1.94l.97-.162.97-.323v-1.454l-4.203-2.423-4.201-2.262-4.525-2.585-4.202-2.423-4.04-3.07-3.07-3.392-2.262-4.2-.97-4.847 3.07 2.746 3.394 2.908 3.394 2.747 3.716 2.908 3.394 2.746 3.394 3.07 3.07 3.23 2.909 3.716 1.454 1.131 1.778 1.131 1.454.485 1.778-.485h.646l-.323-1.615-.808-.97-1.131-.969-1.131-.485-1.455-.807-1.454-.647-1.293-.807-.97-.808-2.747-3.231-2.909-2.747-3.07-2.423-3.07-2.262-3.394-2.585-2.909-2.423-2.909-2.746-2.424-2.908 3.879 2.908 4.686 2.423 4.687 2.262 4.848 2.585 4.363 2.585 4.04 3.23 3.393 3.878 2.424 5.331-.161.97-.162 1.13h1.293l1.293-.484 1.293-.97 1.454-.969-.323-1.454-3.07-4.362-3.394-3.877-3.717-3.393-4.04-2.746-4.363-2.585-4.363-2.1-4.687-1.777-4.363-1.293-1.293-1.292-1.293-.808-.97-.97-.322-1.13 4.363.323 4.686.485 4.363.646 4.525 1.13 4.202 1.293 3.878 1.939 3.394 2.585 3.232 3.715.97 1.454 1.13 1.616.97 1.615.97 1.777.646 1.778.647 1.777.161 1.938.162 2.262.97.97 1.454.484h3.232l1.454-.323h1.778l1.616.161 1.616.808-.485.808.162.97 1.292.484 1.455.646 1.616.162 1.777.161 1.778-.161h3.717l1.939.161 1.131 1.616 1.616.97 1.94.16h2.262l2.1-.322 2.263-.323h2.1l2.102.646-.485 1.13.808 1.616 1.131 1.293 1.778.646 15.352.323-.485 1.13.323.97.646.808.808.97 2.424-.162h2.424l2.586-.162h2.586l2.585-.162h2.586l2.424-.161h2.424v.808l.161 1.13.324.808.808.808 1.939.485h2.1l2.101-.162 2.263-.161 1.939-.647 2.262-.484 1.94-.323 2.262-.162 1.454 2.1 2.101 1.131 2.424.162 2.747-.323 2.586-.485h2.747l2.263.646 1.777 1.777h1.293l1.454.162 1.455-.162h1.454l1.293-.323 1.454-.161 1.293-.323 1.293-.324.808.162.808.485.646.484.808.647.647.484.97.485.807.161h1.293l10.989-1.777.808.97 1.131.646 1.293.161 1.454.162 1.455-.323 1.454-.162 1.293-.323h1.454l11.312-3.23-.161 1.13-.485 1.292-.808 1.293-.647 1.292-.97-.161-.807.161-.647.323-.646.485-1.454 1.13-1.455.809-2.262.484-2.1.97-2.263.807-2.101.808-2.263.485-2.262.484h-2.262l-2.263-.161-3.232 1.292-3.232.808h-6.625l-3.394-.323-3.393.162-3.232.484-2.91 1.616-7.918-.162-7.756-.161-7.919-.323-7.918-.324-8.08-.484-8.08-.485-7.919-.485-7.595-.484z" fill="#ffdeff" fill-rule="evenodd"/><path d="M309.948 167.531l1.132-3.231 3.232.646 3.393.646 3.394.647 3.393.807 3.232.808 3.232 1.292 3.07 1.616 3.071 2.1 6.949 1.131 7.11 1.131 6.95.646 7.271.646h14.221l7.272-.646 7.434-1.13 6.948-1.455 6.626-2.261 6.14-3.07 6.142-3.554 5.817-3.716 6.14-3.716 6.142-3.23 6.787-2.1 2.1-1.616 1.94-1.777 1.454-1.94 1.455-1.938 1.454-1.938 1.778-1.616 1.939-1.13 2.747-.485-4.848 5.33-4.848 5.332-5.333 5.008-5.333 4.847-5.979 4.362-5.979 3.877-6.464 3.07-6.625 2.746-2.586 1.13-2.586.97-2.585.808-2.586.97-2.747.645-2.586.808-2.747.808-2.585.97-9.05 1.453-8.726.485-8.727-.485-8.403-1.13-8.565-2.1-8.241-2.424-8.242-2.908-7.918-2.908-15.676-3.231z" fill="#ff1fff" fill-rule="evenodd"/><path d="M117.806 185.302l.485-1.293-.323-1.13-.808-1.131-.808-.647-.485-1.615-.162-1.616v-5.169l.324-1.616.323-1.454.646-1.292 2.747.807 1.616 1.94.485 2.26v2.747l-.646 2.747-.647 2.908-.323 2.746.323 2.585-1.616-.646-1.13-1.131z" fill="#bf00ff" fill-rule="evenodd"/><path d="M57.045 182.879l.323-1.293.323-1.292.323-1.293.485-1.13.162-1.293.323-1.292.162-1.454.323-1.293 1.616-.161 1.939-.324 1.94-.323h3.716l1.454.647 1.132 1.13.646 2.262.162 1.131-.162.97-.485.646-.808.646-1.131.323-1.131.485-.97.646-.808.808-1.293-.162-1.13.162-1.294.161-.97.485-1.292.323-1.131.323-1.293.162h-1.131z" fill="#0000b3" fill-rule="evenodd"/><path d="M336.612 169.631l-2.424-1.615-2.262-1.131-2.424-1.131-2.424-.646-2.747-.647-2.424-.646-2.747-.646-2.424-.646 3.232.484 3.555.647 3.393.161 3.879.162h15.19l7.595.808 7.757 1.13 7.757 1.131 7.757 1.293 7.757.646 7.756.323 7.757-.485 7.919-.969-3.556 1.454-3.555 1.13-3.717.97-3.555.808-3.717.485-3.716.484-3.717.485-3.555.646-5.495.162h-5.333l-5.332-.485-5.333-.646-5.333-.97-5.171-.969-5.171-.97-5.172-.807z" fill="#ff40ff" fill-rule="evenodd"/><path d="M262.761 172.54l-1.939-.162-1.94.484-1.938.485-1.94.485-1.939.161-1.777-.161-1.455-.647-1.292-1.292-1.616-.485h-3.394l-1.616.162h-1.778l-1.777.323-1.778.161-1.616.162-1.454-2.585-1.94-1.13-2.262-.162-2.424.484-2.747.647-2.586.807-2.585.485h-2.424l.323-1.13.485-.97v-.97l-.808-.484-2.747-.646-2.424-.162h-2.748l-2.424.485-2.747.161-2.585.323-2.586.162h-2.424l.162-.808.323-.808-.162-.807-.646-.808-2.424-.485-2.263-.323-2.424-.161H176.79l1.293-2.585-1.94-1.454-1.777-.646-2.1-.324h-4.364l-2.262.324h-4.202l.485-1.131-.162-.808-.808-.808-.97-.485-1.615.162-1.455.162-1.454.161-1.454.162h-2.909l-1.455-.162h-1.292v-1.292l-.808-.97-1.293-.807-1.131-.485h-9.212l.808-1.777.324-1.616-.162-1.615-.323-1.454-.808-1.616-.647-1.454-.646-1.454-.323-1.454-1.94-2.423-1.939-1.939-2.1-1.938-2.101-1.454-2.424-1.616-2.263-1.292-2.424-1.454-1.939-1.131-2.909-.485-2.747-.161-2.909-.323-2.747-.162-2.909-.485-2.747-.323-2.747-.646-2.586-.485 4.525-.484 5.01-.323h5.01l5.17.484 4.849.808 4.848 1.777 4.363 2.585 3.878 3.877.97 1.293.97 1.292 1.13 1.454 1.132 1.454.97 1.293 1.13 1.454 1.132 1.454 1.131 1.453.485-.969.808-.323.808-.323h2.101l1.13.323.97.162 1.132.323 1.13 2.1 1.94 1.292 2.1.647 2.586.323h2.424l2.586.161 2.262.162 2.424.97 1.293.16 1.293 1.132.485.646.646.646.647.323.97.323 13.089 1.131 1.454 1.616 1.94 1.13 2.1.324 2.424.161 2.263-.323 2.262-.162h2.262l2.263.485 1.777 1.616 2.424 1.13 2.424.324 2.91.161 2.746-.323 2.91-.161 2.585-.162 2.585.162.808 2.261 1.778 1.454 2.1.485 2.748.161 2.424-.323 2.747-.323 2.263-.323 2.1.162.324 1.292 1.13 1.293 1.294.807 1.616.485 16.321-.97.323.97.808 1.13.97.486 1.454.646 1.616.323h1.778l1.778-.323 1.777-.323 1.454-.647 1.778-.323 1.778-.161 1.939.323 1.454 1.777 2.101.808 2.262-.162 2.586-.323 2.424-.808 2.586-.484 2.262.161 2.424 1.131 8.08.323v1.131l-19.554 5.008-2.585-1.777-2.424-.323-2.747.162-2.748.646-2.908.484-2.586.162-2.586-.808-1.939-1.777z" fill="#ff30ff" fill-rule="evenodd"/><path d="M108.11 174.316l1.293-.484.97-.808.484-.97.485-1.13.162-1.293.646-1.13.647-1.132 1.454-.484V179l-1.778-1.13-1.616-.97-1.454-1.292-1.293-1.293z" fill="#9e00ff" fill-rule="evenodd"/><path d="M346.955 161.877l-4.363-.162h-4.364l-4.363-.162h-4.201l-4.364-.484-4.04-.323-4.363-.647-4.04-.646-.323-1.454 7.918.485 7.919.646 7.918.162 7.919.323h23.916l8.404.161 5.817.647 5.818.484h5.817l5.98-.161 5.656-.647 5.817-.646 5.818-1.13 5.817-1.131 3.879-2.424 3.878-2.262 3.717-2.261 3.878-2.262 3.717-2.423 3.717-2.424 3.717-2.584 3.716-2.424-4.04 5.493-4.848 4.524-5.494 3.554-5.98 3.07-6.463 2.423-6.464 2.423-6.464 2.585-5.818 3.23-7.595 1.132-7.433.646-7.596-.323-7.595-.646-7.757-1.293-7.595-1.13-7.757-1.132-7.433-.807z" fill="#ffcfff" fill-rule="evenodd"/><path d="M291.203 165.754l-12.12 1.777-.808-1.616-.97-1.13-15.19.969-1.778-1.777-1.939-.808-2.424-.323-2.262.161-2.747.162-2.586.323-2.586.162h-2.262l-2.1-.323-.162-1.131-.162-.97-.485-.807-.646-.323-2.101-.162h-4.04l-1.94.323h-1.938l-1.94.162-1.939-.162-1.777-.161-.324-1.293-.323-.97-.485-.969-.97-.323-2.585-.323-2.747.162-2.909.161-2.747.162-2.909-.162-2.585-.323-2.263-1.13-1.777-1.778-2.424-.484-2.424.161-2.748.162-2.424.323-2.424-.162-2.262-.323-1.778-1.13-1.292-1.778-2.101-.646h-2.263l-2.262.162-1.94.323-2.262-.162-1.777-.323-1.455-.97-.97-1.453-16.644-2.908-1.131-2.1-1.616-1.131-2.101-.808-1.94-.323-2.1-.646-1.616-.808-1.293-1.616-.323-2.585-4.363-4.523-4.848-3.231-5.171-2.423-5.333-1.454-5.818-.97-5.817-.484-6.141-.324h-5.818l4.525-1.938 4.848-1.293 4.848-.807h5.171l4.848.161 5.01.97 4.848 1.292 4.686 2.262 9.211 10.34.808-.162.97-.162.646-.485.808-.646h11.959l-.162 1.131.162 1.454.485 1.13 1.292.97 11.797.97.808 1.777 1.455 1.292 1.777.485 2.263.323 2.262-.162h4.524l2.102.323v.808l.323.808.485.646.646.646 1.454.808 1.778.485 15.998.646.162.97.485.969.646.484.97.646.97.324 1.13.323.97.161 1.131.485 1.778-.485h4.04l2.262.162 2.101.161 2.263.323 2.262.162 2.262.323-.161.808.323.808.323.484.808.646.647.162.808.323.808.162.808.161 2.1.323 2.263.162h4.525l2.1-.162 2.263.162h2.424l2.424.646 1.293 2.1 1.939 1.131 2.262.323 2.586.162 2.585-.162 2.748-.161 2.747.161 2.585.647 1.778 1.777 2.262.969 2.424.323 2.747.162 2.748-.324 2.747.162 2.585.485 2.586 1.13 1.778.162 1.777.162 1.778-.162h1.94l1.777-.485 1.777-.323 1.94-.484 1.939-.323.161.484-.161.97-.485.807-.323.97-1.94.807-1.777.647-2.1.484-2.102.323-2.424-.161-2.262-.162-2.1-.646-1.94-.646z" fill="#ff4fff" fill-rule="evenodd"/><path d="M42.34 162.2l-4.526-10.663 2.101 2.262 2.586 2.1 2.747 1.454 3.07 1.454 3.07.97 3.233.969 3.232.807 3.393.97 1.293.484 1.455.485 1.616.485 1.777.484 1.616.162 1.778.162 1.777.161 1.778.162 1.293-.808 1.293-.646 1.292-.808 1.293-.646 1.131-.808 1.293-.808 1.131-.97 1.293-.968 7.434 2.584-1.132.97-.97.646h-1.13l-.97.161-1.131-.161-1.131.161-1.131.162-.97.808-.808 1.454-.97 1.454-1.13 1.292-.97 1.454-1.293-.323-1.131-.323-1.293-.485-.97-.161-1.293-.323h-2.424l-1.13.323-.162.807-.324.485-.808.323-.646.162-.97-.162h-1.616l-.484.485h-3.07l-3.071-.162-3.232-.484-2.91-.485-3.07-1.292-2.747-1.454-2.424-1.939-1.939-2.423z" fill="#1f00de" fill-rule="evenodd"/><path d="M290.88 159.453h-13.252l-1.777-2.1-2.1-.97-2.587-.645h-10.988l-2.424-.324-1.455-3.07-2.908-.484-2.586-.161h-5.333l-2.747-.162-2.586-.161-2.585-.323-2.586-.485v-1.131l-.161-.646-.485-.646-.485-.162-.808-.323h-.808l-.97-.162-.484-.161-2.424-.646-2.424-.162h-2.424l-2.424.162H216.382l-2.262-.324-2.263-.484-1.616-2.262-1.939-1.13-2.424-.647h-2.747l-3.07-.162-2.91.162-3.07-.162-2.424-.484-.808-2.262-1.292-1.13-1.94-.486h-2.262l-2.586.162-2.424.162h-2.424l-1.939-.324-.97-1.938-1.13-1.131-1.617-.808-1.777-.323-2.101-.323h-5.818l.162-1.13v-.809l-.485-.807-.323-.485-.808-.646-.646-.323-.97-.324-.485-.161-1.777-.485-1.94.162-2.1.161-1.94.323-2.1-.161-1.455-.485-1.131-1.292-.323-2.1-5.818-3.878-6.14-2.746-6.788-1.939-6.787-.969-7.11-.485-6.95.647-6.786 1.454-6.303 2.261 4.202-2.746 4.686-2.1 4.687-1.777 5.17-1.131 4.849-.97 5.333-.323 5.17.162 5.334.646 1.939.97 2.1 1.13 1.94 1.131 2.262 1.131 1.94 1.13 1.939 1.455 1.777 1.454 1.778 1.938.646-1.13.323-1.131-.484-1.454-.485-1.293 1.454-.161 1.455-.162h4.686l1.454.485 1.293.485 1.455.807-.485.97v.969l.161.808.808.807.647.485.808.485.97.323.969.485 15.514 2.746-.162 1.13.323 1.132.647.807.97.97 2.585.323 2.747.323 2.586.162 2.585.161 2.424.162 2.424.323 2.586.484 2.747.808-.323 1.131.97 1.13 1.13.809 1.455.807 2.262.808 2.424.485 2.586.161 2.586.324 2.424.161 2.747.162 2.424.323 2.747.808-.162 1.454.808 1.454 1.293 1.13 1.616.647 18.907.969-.484.97v.807l.323.646.97.646.807.324.97.484.97.485.97.646 16.805 1.777 1.616 2.262 2.101 1.454 2.424.646 2.91.323 2.746-.161 2.91-.162 2.908-.161 2.909.484.646 1.131 1.131.808 1.131.161 1.455.162 1.454-.323 1.455-.323 1.454-.162 1.616.323.97-.969 1.292-.323 1.132-.162 1.454.323 1.293.162 1.293.323 1.292.162 1.293.161-.97.808-.969.646-1.293.485-1.293.484-1.454.162-1.293.323-1.454.323-.97.646-1.293-.323-1.292-.161h-2.586l-1.454-.323-1.132-.162-1.13-.646-.97-.485z" fill="#ff70ff" fill-rule="evenodd"/><path d="M365.054 156.868l-30.22.324 4.687-1.293 5.01-.646 5.171-.323 5.333.161 5.171.162 5.333.485 5.171.323 5.01.484 3.878-.969 4.202-.808 4.04-.808 4.201-.646 4.04-.97 4.202-.807 3.878-.97 3.879-.807 4.686-.646 4.848-1.131 4.525-1.454 4.525-1.777 4.201-2.423 4.363-2.585 3.879-3.07 3.878-3.23 3.07-1.455 3.07-1.454 3.071-1.777 3.07-1.615 2.91-1.939 3.07-1.616 3.07-1.454 3.555-1.13-7.595 6.785-7.433 6.785-7.757 6.3-7.918 5.817-8.565 4.846-8.888 4.039-9.373 2.585-10.02 1.292h-4.686l-4.363-.323-4.363-.646-4.202-.485-4.363-.646-4.363-.485-4.525-.323-4.363.323z" fill="#ff5eff" fill-rule="evenodd"/><path d="M46.702 156.545l-1.292-1.454-1.132-.969-1.454-.97-.97-.646-1.13-.969-.809-.97-.646-1.453v-1.454l.808-1.777 1.454-1.293 1.293-1.13 1.616-.808 1.454-.97 1.455-.969 1.293-1.13 1.292-1.455 1.616-.97 1.778-1.13 1.778-1.13 1.939-.809 1.777-.807 1.94-.162 1.939.162 2.1 1.292 2.91.323 1.615-1.454 1.616-1.615 1.293-1.777 1.293-1.778.97-1.938 1.454-1.454 1.454-1.454 1.94-.97.323-1.13.485-1.131.484-1.131.485-.97.323-1.13.324-1.131.161-1.131.323-1.13.485 2.26 1.293 2.263 1.616 2.1 1.778 2.262 1.13 2.1.485 2.261-.807 2.1-2.101 2.424-.323 1.13-.808 1.293-.97 1.131-.97 1.131-.97.97-.322 1.292.161 1.13 1.293 1.455-.485 1.454-.646 1.13-1.131.647-.97.807-1.131.485-.808.808-.647.97-.161 1.615v.97l.485 1.13.808.646 1.13.808 1.617-.162h3.717l1.777.162 1.616.161 1.616.808 1.293 1.131 1.131 1.777 2.262 2.424h-2.1l-1.94-.324-1.939-.807-1.939-.647-1.94-.646h-1.938l-1.778.646-1.454 1.778-1.778 1.777-1.94 1.292-2.423.646-2.262.323-2.586-.323-2.424-.161-2.424-.485-1.94-.485-15.19-4.685z" fill="#bf00ff" fill-rule="evenodd"/><path d="M311.403 155.414l2.1-1.292 18.908-.808 4.525-2.423 5.01-1.292 5.17-.97 5.333-.161h5.333l5.494.484 5.172.485 5.17.646 7.758-.484 7.756-.808 7.596-1.454 7.595-1.777 7.272-2.1 7.433-2.1 7.272-2.1 7.434-1.616-5.171 3.554-5.333 2.746-5.818 1.939-5.817 1.615-6.303.97-6.14 1.13-6.303.97-6.14 1.292-5.657 1.454-5.656.646-5.817.162-5.656-.162-5.98-.323-5.817-.323-5.818-.161-5.656.484-3.555 1.293-3.555.808-3.717.323-3.555.161-3.878-.323-3.717-.161-3.717-.324h-3.555z" fill="#ffdeff" fill-rule="evenodd"/><path d="M289.748 153.314h-2.262l-2.1.323h-2.263l-2.263.323-2.424-.161h-2.1l-1.94-.646-1.777-.485-.323-1.454-.647-.97-1.13-.807-.97-.323-18.584-2.1.323-1.777-.647-1.293-1.454-1.13-1.293-.485-19.553-1.131.484-1.131v-.808l-.484-.646-.808-.485-1.132-.484-.97-.324-.969-.484-.485-.162-2.585-.323-2.586-.161-2.424-.324-2.262-.161-2.424-.485-2.424-.484-2.263-.647-2.262-.646-1.454-2.423-1.778-1.293-2.424-.646-2.747-.161h-5.818l-2.909-.162-2.424-.646-3.07-1.131.162-.808v-.646l-.162-.808-.485-.484-2.424-.97-2.424-.484-2.424-.485-2.424-.485-2.585-.484-2.424-.485-2.424-.646-2.263-.646.485-.808.162-.808-.324-1.13-.323-.809-2.1-1.13-2.101-.647-2.263-.646h-2.1l-2.263-.323H145.116l-2.908-1.777-2.747-1.131-3.07-1.13-2.91-.647-3.232-.646-3.07-.485-2.909-.323-2.909-.323-1.13-1.293-1.294-.807-1.454-.485h-1.454l-1.778-.162-1.454.162h-1.616l-1.293.162-1.131-2.262-1.293-1.131-1.94-.485h-4.039l-2.101.323-2.263-.161-1.777-.162-.97-1.292-.808-1.131-.97-1.292-.807-1.131-1.132-1.131-1.13-.646-1.617-.324-1.454.485-1.131-1.292-1.131-.808-1.293-.646-1.293-.323-1.454-.485-1.455-.323-1.454-.485-1.131-.646-1.293.162-.808.807-1.131.485-.97-.323-1.131-1.131-.97-1.13-.646-1.293.97-1.131.969-1.616 1.293-1.292.646-.646.808-.323.808-.324h1.939l.647.485.485.485.646.646.485.485.646.646.647.323.97.485.807-.162h1.131l1.132-.162 1.13.162.809.162.808.646.323.97-.162 1.615 1.455 1.13 2.1.647h2.263l2.424.161 2.1-.161 1.94.484 1.454.97.97 2.1 1.454.485 1.455.323 1.454.161 1.454.162 1.455-.162 1.616-.161h1.616l1.94.161v.97l.322.969.323.808.808.807.647.485.808.646.97.323.97.323h1.453l1.778-.161 1.778-.485 1.939-.161 1.616-.162 1.454.323 1.131.97.97 1.777 2.1.969 2.425.323 2.747-.161h2.747l2.263-.162 2.424.646 1.939 1.131 1.454 2.262 2.263 1.13 2.585.485h2.747l2.91.162h2.423l2.424.646 1.94 1.293 1.615 2.746 1.94.808 2.1.484h2.101l2.424.162 2.101-.323h4.686l2.424.646 1.132 2.423 2.1 1.454 2.424.647 2.91.323 2.746-.162 2.748.485 2.262.808 1.778 2.1 1.777.97 2.101.645 2.1.323 2.425.323 2.1.162 2.101.646 1.778.97 1.616 1.615h1.454l1.455.162h1.454l1.616.161h1.455l1.616.323 1.454.162 1.616.646 1.293 1.939 1.777 1.615 1.778.808 2.262.646 2.263.162 2.262.323 2.263.323 2.424.646.97 1.454 1.777.97 1.939.323 2.424.323h2.1l2.263.323 1.778.646 1.616 1.616 1.777 1.615 2.424 1.131 2.424.646 2.91.646 2.746.162 2.91.162 2.585.484 2.585.808 2.263 1.13 2.424.486h2.585l2.747-.162 2.586-.323 2.586.161 2.262.808 2.424 1.777 7.11-.646-.484 1.292-.808.97-1.132.646-1.13.323-1.94-.485-1.94.162-1.777.323-1.777.485-1.94.484-1.616.485-1.939.323-1.616.323-.323-1.13-.808-.97-.97-.808-.808-.323z" fill="#ffbfff" fill-rule="evenodd"/><path d="M313.18 151.537l4.364-.808 4.524-.484 4.364-.646 4.686-.485 4.363-.97 4.525-.807 4.363-1.293 4.363-1.292 8.404-3.554 8.564-3.231 8.727-3.07 8.888-2.423 8.726-2.423 9.373-1.778 9.211-1.454 9.858-.484h6.302l5.98-.323 5.817-1.131 5.656-1.454 5.333-2.1 5.494-1.939 5.494-1.939 5.495-1.777-2.424 2.424-2.263 2.261-2.908 1.939-2.748 1.939-3.07 1.454-3.07 1.615-3.07 1.616-2.91 1.615-7.756.808-7.595 1.292-7.596 1.454-7.433 1.777-7.757 1.454-7.595 1.616-7.757.97-7.918.646-6.626 2.423-6.787 1.454-7.11.97-7.111.645-7.272.485-7.11.97-6.788 1.453-6.302 2.585H313.18z" fill="#ff5eff" fill-rule="evenodd"/><path d="M91.789 137.32l1.454 2.908 1.94 2.424 2.262 1.938 2.585 2.1 2.424 1.616 2.424 2.1 2.101 2.1 1.94 2.585-2.748-1.615-2.909-1.454-2.909-1.777-2.747-1.616-2.585-2.262-1.778-2.423-1.293-3.07-.161-3.554z" fill="#ffdeff" fill-rule="evenodd"/><path d="M366.508 147.337l6.95-3.07 7.433-1.777 7.595-1.292 8.08-.646 7.757-.808 8.08-.97 7.918-1.454 7.757-2.1 9.858-1.777-8.404 2.585-8.403 2.746-8.888 2.747-8.888 2.585-9.211 1.938-9.05 1.293-9.372.484-9.212-.484z" fill="#ff80ff" fill-rule="evenodd"/><path d="M313.504 147.014l6.625-1.454 6.464-1.616 6.141-2.1 6.302-2.423 5.818-2.908 5.98-2.908 5.817-3.231 5.979-3.393 2.262-1.615 2.748-.97 2.747-.97 3.07-.484 2.909-.646 3.07-.485 3.07-.484 3.233-.323-8.888 2.423-8.242 3.392-8.08 3.716-7.918 4.2-8.08 4.04-7.919 4.038-8.403 3.393-8.241 2.908-6.464-.323v-1.777z" fill="#fff0ff" fill-rule="evenodd"/><path d="M298.636 147.337l-2.262-.323-2.262.161h-2.263l-2.262.323-2.424-.161-2.1-.485-1.94-.808-1.616-1.292-2.424-.646h-7.757l-2.586-.323-1.939-.647-1.777-1.292-.808-1.939-1.616-.969-1.616-.485-1.778-.484-1.616-.162-1.777-.323-1.778-.162-1.778-.161-1.616-.162-1.454-2.1-1.94-.97-2.423-.484-2.424-.161-2.747-.323-2.263-.485-1.94-1.131-1.13-2.1-2.424-1.293-2.263-.646-2.585-.161-2.424.161-2.424-.161-2.263-.485-1.939-1.13-1.454-1.94-1.94-.323h-1.777l-1.94-.161h-1.777l-1.777-.485-1.293-.646-1.293-.97-.646-1.453-2.263-.97-2.262-.484-2.424-.324-2.424-.161-2.424-.485-1.94-.646-1.777-1.292-1.131-1.616-2.424-.97-2.263-.484h-2.262l-2.262.162-2.263.161h-2.262l-2.101-.161-1.94-.485-1.777-3.07-2.585-1.615-3.07-.646-3.233-.162-3.393-.161-3.07-.485-2.586-1.454-1.616-2.746-1.94-.324-1.777-.161-1.94-.162H132.998l-1.293-2.746-2.101-1.13-2.747-.162-2.747.323-2.91.161-2.423-.323-1.94-1.292-.807-2.747-1.616-.646-1.455-.323h-4.686l-1.455.161h-1.616l-1.616.162-.808-2.423-1.13-1.293-1.778-.646-1.778-.161H95.83l-2.101.161-2.263-.161-1.777-.162-.323-1.454-.162-1.454-.485-.646-.323-.485-.646-.485h-2.424l-1.455-.161-1.454-.646-1.131-.485-1.293-.808-1.293-.807-1.293-.647-1.292-.323.323-.97.323-.968.323-1.131.485-.97 1.293-.161 1.293-.162 1.292-.323h1.455l.808 1.131.97.808 1.13.484 1.455.485h5.656l.485 2.423 1.454 1.616 1.778.646 2.424.162 2.424-.323 2.585-.162 2.424-.161 2.424.646 1.131 2.746 1.778 1.616 2.262.646h2.748l2.585-.485 2.91-.323 2.585-.323 2.747.485.161 1.13.808 1.131 1.132.97 1.13 1.292 1.455.162 1.778-.162 1.616-.323 1.777-.323 1.455-.485 1.454.162 1.293.646 1.293 1.454 1.939.808 2.1.484 1.94.162 2.1.323 1.94-.161h2.1l2.102.161 2.424.323-.647 1.293v1.615l2.424 2.1h5.817l2.102.162h1.939l1.939.161h3.878l.808.647.162.969v.808l1.131.808 1.778.484 1.939.323h1.94l2.262.323 1.939.162 1.939.808 1.616.97 1.454 1.938 16.807 1.454.161.969.485 1.13.485.809.808.969.808.323 1.131.485.97.161h3.394l.969-.323h1.131l.808-.161.97.161.808.323.97.808 1.292 2.585 2.263 1.777 2.747.808 3.232.646 2.909.485 2.747 1.13 2.262 1.778 1.616 3.23 1.94.97 2.585.646 2.586.323 2.747.323 2.262.324 2.424 1.13 1.778 1.616 1.454 2.746 1.616.808 1.94.485 1.939.161 2.1.162h1.778l1.777.646 1.616.97 1.455 1.777 1.616.484 1.94.162 1.777.161 1.939.162h1.616l1.777.646 1.455.808 1.454 1.454 2.424.484 2.747.485 2.748.323 2.908.323H303l2.747.162 2.585-.162 2.748-.161.161.646.162 1.13-1.616.809-1.616.646-1.778.161-1.616.162-1.777-.323-1.616-.485-1.455-.646-1.293-.646z" fill="#ff9eff" fill-rule="evenodd"/><path d="M335.32 146.206l5.979-3.07 6.14-3.23 5.98-3.232 6.14-3.07 5.98-3.069 6.302-2.585 6.303-2.261 6.787-1.777 4.04-2.908 4.363-2.1 4.686-1.778 4.848-1.13 4.848-1.131 5.01-.97 5.01-.97 5.01-.807 5.817-.161h18.422l5.98-.162 6.14-.485 5.656-.807 5.818-1.131-4.525 3.877-5.333 1.454-5.01 1.939-5.332 1.938-5.01 1.939-5.333 1.615-5.332 1.293-5.656.646-5.656.162-11.797.484-11.312 1.616-10.989 2.423-10.504 3.231-10.666 3.231-10.504 3.878-10.504 3.554-10.504 3.554h-1.292z" fill="#ff40ff" fill-rule="evenodd"/><path d="M286.516 139.905l-9.534-1.13-1.616-2.262-2.1-1.131-2.425-.485-2.424-.161-2.585-.324-2.101-.646-1.94-1.454-.807-2.423-2.424-1.616-2.424-.646-2.747-.484-2.586-.162-2.747-.485-2.101-.646-1.778-1.615-.97-2.424-1.777-1.292-1.777-.646-2.101-.485-1.94-.162-2.1-.484-2.101-.323-1.94-.485-1.615-.808-.323-2.908-.97-1.615-1.778-.97-1.939-.161-2.424-.162-2.262.162-2.263-.162-1.777-.161-.485-1.131-.485-.808-.646-.97-.647-.484-.808-.484-.808-.324-.97-.161h-.969l-13.736-.97-1.293-2.1-1.616-1.13-2.262-.647h-2.262l-2.586-.161-2.1-.323-1.94-.97-.97-1.777-2.262-.808-2.1-.484-2.102-.323h-6.625l-2.263-.162h-1.939l-.646-.97.323-.807.323-.646v-.485l-1.939-1.615-2.1-.647-2.263-.484-2.101.161H146.733l-1.94-.323-.646-1.13-.485-.647-.646-.646-.808-.323-.97-.485h-.97l-.969-.161-.97.323h-1.13l-1.132.161-.97.162-.97.323h-.969l-.97.161-.969-.323-.646-.484-.162-1.454-.485-.97-.808-.807-.646-.324-15.675.324v-1.131l-.162-.808-.646-.646-.485-.485-1.455-.97-1.13-.645-13.575-.324v-.969l.161-.97-.484-.969-.324-.646-.808-.808-.808-.484-.808-.323-.808.161h-1.13l-1.132.162H86.94l-.969-.323-.808-.323-.646-.647-.162-.969-1.293-.646h-2.747l-.97.161-1.13-.161-.809-.323-.646-.97-.162-1.292 1.132-1.13 1.454-.647 1.454-.485h3.071l1.616.162 1.616.323 1.616.323.808 1.13 1.292.486h1.455l1.616-.162 1.454-.323 1.455.161 1.292.647.97 1.615.808.323 1.293.162h1.293l1.454.161 1.293-.323 1.454-.161 1.293-.323 1.131-.162.162.808.485 1.13.646.97 1.131.646 16.322.323.97 2.424L130.572 79l2.1.646 2.748.323 2.747-.162 2.909-.161 2.747.161 2.424.647 1.616 1.938 2.1 1.454 2.425.646 2.908.485 2.748-.161h2.908l2.91-.162 2.908.162.97 2.584 1.939 1.616 2.585.808 3.07.484 3.233-.161h3.232l3.07.161 2.909.808.162 1.131.484 1.13.647.97 1.131.808h1.94l2.262.162h1.939l2.262.161h2.101l2.1.323 2.102.485 2.1.646-.484.808v.97l.161.807.808.97.647.645.97.808.969.485 1.131.485 1.94.323 2.423.161h2.424l2.586.162 2.262.323 1.94.808 1.615 1.292 1.132 2.262 1.777 1.13 2.263.808 2.585.324 2.747.484 2.263.323 2.262 1.131 1.616 1.616.808 2.746 1.616.646 2.1.647 1.94.484 2.263.646 1.777.485 1.778 1.131 1.293 1.292.808 2.1 1.292.97 1.455.646 1.616.485 1.939.646 1.616.323 1.616.646 1.293.808 1.293 1.454 1.292 1.131 1.94.808 1.939.323 2.1.485 1.778.161 1.94.808 1.454.97 1.292 2.1 2.91 1.13 2.908.97 2.909.807 3.07.808 2.91.323 3.231.485 3.232.161 3.394.324 1.13 2.1h-3.07l-3.07.161-2.909-.161-2.909-.162-2.908-.646-2.748-.808-2.585-1.13-2.263-1.455z" fill="#ffdeff" fill-rule="evenodd"/><path d="M29.25 129.889l2.262.323 2.424.808 2.1.97 2.102 1.292 2.1 1.13 2.101 1.293 2.263.97 2.424.645-1.293 1.293-1.293 1.292-1.616 1.131-1.616 1.131-1.616.97-1.454 1.292-1.132 1.454-.646 2.1-.485-2.585-.646-2.423-.808-2.423-.808-2.1-1.131-2.262-1.132-2.1-1.13-2.262-.97-1.939z" fill="#f0f0ff" fill-rule="evenodd"/><path d="M322.068 142.006l9.535-5.493 9.696-5.493 9.534-5.655 9.858-5.008 9.696-4.685 10.342-3.554 10.666-2.585 11.312-.97 5.656-2.584 6.302-1.777 6.626-1.13 6.787-.486h6.626l6.787.808 6.625.97 6.464 1.777 12.928-1.454-1.293 1.454-1.292.969-1.778.646-1.778.646-1.939.323-1.939.324-1.94.161-1.615.485-35.229.323-7.11 1.454-6.95 1.777-6.948 1.777-6.787 1.939-6.949 1.777-6.787 1.938-6.949 1.616-6.949 1.616-4.363 2.907-4.363 2.585-4.525 2.262-4.525 2.262-4.686 1.938-4.686 1.94-4.848 1.938-4.525 2.262h-4.687z" fill="#ff0fff" fill-rule="evenodd"/><path d="M310.756 142.329l1.455-.97 1.777-.807 1.778-.97 1.94-.646 1.777-.97 1.939-.807 1.94-.808 1.938-.808 4.202-2.584 4.363-2.585 4.202-2.747 4.201-2.746 4.202-2.747 4.202-2.584 4.363-2.585 4.363-2.262 5.171-1.454 5.01-1.616 5.01-1.777 5.009-1.777 5.01-1.615 5.332-1.131 5.495-.646 5.979.323 9.211-1.454-3.878 1.615-4.202 1.293-4.363.484-4.202.485-4.363.323-4.363.646-4.04 1.131-3.717 1.939-8.403 2.746-8.08 3.878-7.757 4.038-7.757 4.524-7.918 4.362-7.918 4.362-8.242 3.716-8.242 3.23-1.292-.322-1.132.323z" fill="#fff0ff" fill-rule="evenodd"/><path d="M281.184 131.666l-1.616-.808-1.616-.323-1.778-.323-1.616-.161-1.616-.647-1.454-.484-1.293-1.131-.647-1.454-1.454-.646-1.293-.485-1.292-.323-1.293-.162-1.455-.323-1.293-.323-1.292-.485-.97-.484-.485-2.585-1.13-1.616-1.778-1.13-2.101-.647-2.424-.484-2.263-.323-2.262-.647-1.778-.646-.808-3.393-1.616-1.777-2.585-.807-2.747-.324-3.07-.323-2.425-.484-2.1-1.131-.97-2.1-2.263-1.616-2.424-.97-2.585-.484-2.424-.161-2.747-.324-2.586-.161-2.586-.646-2.262-.97.323-.646.485-.646.162-.646-.324-.485-2.262-1.454-2.1-.97-2.425-.645-2.424-.324-2.585-.323-2.424-.161-2.586-.323-2.424-.162-.162-1.292-.484-.97-.97-.969-.808-.646-17.776-1.454-.162-1.454-.323-.97-.646-.969-.647-.484-1.13-.647-.97-.161h-1.132l-.97.484-14.22-.807-.485-.97-.485-.807-.646-.808-.646-.485-.97-.646-.808-.323-.97-.162h-.808l-13.736-.646.162-1.454-.323-1.292-1.131-.97-1.293-.323-15.999-.646.162-1.13.162-.97-1.455-.97-1.454-.484-1.455-.162-1.454.485-1.778.323-1.616.485-1.616.161-1.616.162-.161-1.131-.323-.97-.647-.807-.646-.323-2.586.323h-1.939l-1.94-.485-1.777-.646-1.939-.97-1.94-.484-2.1-.323-2.1.485.807-.808.97-.646.97-.808 1.13-.485.97-.646 1.293-.485 1.293-.161 1.454.161 1.131 1.131 1.616.485 1.455-.162 1.777-.161 1.455-.323 1.616.161 1.293.485 1.454 1.454 1.131-.162 1.293-.323 1.293-.484 1.293-.324.97-.484 1.13.161.97.485.808 1.13 1.616.97 1.94.485 1.938-.162 2.101-.161 1.778-.485 1.94.162 1.615.646 1.616 1.777h2.747l1.455-.323h1.616l1.292-.162 1.455.323.97.647.807 1.292 1.616.97 1.94.322 1.939-.161 2.262-.162 1.94-.323 1.939.323 1.454.808 1.131 1.777 1.616.485 1.94.161 1.939-.161h3.555l1.777.323 1.293.97 1.293 1.776 1.616.162h1.94l1.938-.162h3.556l1.777.485 1.293.808 1.131 1.615 1.293.323 1.454.324 1.616.161 1.616.162 1.455-.162 1.777-.161h3.232l.808 2.584 1.94 1.293 2.1.484 2.586.162 2.424-.323 2.424.323 2.1.646 1.617 1.939 1.454.323 1.455.485 1.454.484 1.454.485 1.455.162 1.616.323 1.616.161 1.939.162.485 1.615 1.293 1.293 1.616.646 2.1.323h1.94l2.262.162 2.1.161 1.94.646.162 2.1.97 1.616 1.454.808 2.1.646 2.101.162 2.263.323 2.1.323 2.101.808-.485.969.162.97.323.807.808.97.647.484.97.485.969.161 1.13.162 3.556 1.13-.161 1.455.808 1.454 1.13 1.13 1.455.808h.97l1.454.162h1.293l1.293.484.808.485.808.808.323 1.13-.162 1.616.97 1.131 1.616.97 1.616.646 1.777.646 1.455.485 1.454.969 1.131 1.13.97 1.778 1.778 1.454 2.1 1.13 2.263.808 2.424.808 2.1.808 2.263 1.13 1.778 1.455 1.616 2.1 1.939.646 2.1.808 2.101.485 2.263.484 2.1.323 2.263.324 2.262.323 2.424.484-1.454.485-1.454.323h-3.071l-1.777-.323-1.616-.323-1.616-.162h-1.455l-1.939-.646-1.94-.485-1.938-.484-1.94-.485-1.939-.808-1.616-.969-1.454-1.292-1.131-1.616z" fill="#ffbfff" fill-rule="evenodd"/><path d="M310.433 136.997l2.747-1.13 2.586-1.616 2.1-2.1 2.263-2.1 2.101-2.1 2.586-1.616 2.747-1.293 3.393-.161 7.272-6.14 7.757-5.169 8.08-4.362 8.403-3.877 8.242-3.877 8.565-3.716 8.08-4.2 8.241-4.524 5.333-1.13 5.333-.97 5.333-1.131 5.656-.808 5.333-.97 5.656-.322h5.656l5.817.807 2.909.97 3.07 1.13 2.91 1.132 3.07 1.454 2.908 1.292 2.91 1.615 2.585 1.616 2.747 2.1 2.1.162 2.101.484 1.94.647 2.1.807 1.94.485 2.1.646 1.94.323h2.424l-4.364.323-4.04-.161-4.201-.808-3.879-.97-4.04-1.453-3.878-1.454-3.878-1.454-3.717-1.454-6.787-1.13-6.626-.324-6.787.162-6.626.807-6.787.97-6.625 1.615-6.626 1.616-6.302 1.938-10.181 2.908-9.696 3.878-9.535 4.361-9.05 5.17-9.21 5.17-8.727 5.654-9.05 5.493-8.887 5.654-1.132.324-1.13.484-1.132.323-.97.485-1.13.323-1.132.323-1.131.162-1.131.161-.647-1.454z" fill="#de00ff" fill-rule="evenodd"/><path d="M289.425 131.666l-1.293-2.262-1.616-1.292-1.939-.97-2.1-.484-2.425-.646-1.939-.647-1.616-1.292-.97-1.615-1.615-1.616-1.778-.97-2.1-.807-1.778-.646-1.94-.808-1.292-.97-.808-1.292.323-1.777-1.293-1.615-1.454-.808-1.778-.323-1.777-.162-1.778-.323-1.131-.646-.647-1.131.324-1.777-.97-1.131-1.293-.646-1.454-.323-1.455-.162-1.454-.323-.97-.485-.646-1.13v-1.455l-1.454-1.292-1.616-.808-1.778-.484-1.616-.162-1.94-.323-1.777-.162-1.94-.484-1.453-.485-.485-2.746-1.293-1.454-1.94-.808-2.262-.162-2.585-.323-2.263-.323-1.777-.808-1.131-1.615-1.778-.97-1.454-.323-1.778-.161h-1.454l-1.778-.162-1.616-.161-1.616-.323-1.454-.323-1.455-2.585-1.777-1.131-2.424-.323-2.263.161-2.585.162-2.263-.323-1.777-.97-.97-2.1-1.778-.646-1.616-.323h-1.777l-1.616.161h-3.394l-1.777-.161-1.616-.162-.324-1.292-.646-1.131-1.131-.808-1.131-.323-1.455-.161h-1.293l-1.292.161-1.293.323h-1.455l-1.292.162-1.293-.162h-1.293l-1.131-1.938-1.293-.97-1.616-.646h-3.556l-1.777.162-1.777.161h-1.616l-.97-2.1-1.293-.97-1.616-.484h-1.777l-2.101.162-1.94.323h-3.393l-1.131-2.1-1.455-.97-2.1-.323-2.101.323-2.424.162-2.1-.162-1.94-.646-1.293-1.616-10.666.97-.97-2.1-1.292-.97-1.616-.161-1.778.323-2.1.323-1.778.323-1.778-.323-1.13-.97-1.294-.484-1.13.161-1.294.324-1.13.323-1.294.161h-.97l-1.13-.484-.647-.97 4.04-2.262 4.687-1.13 4.686-.323 5.01.323 4.848.484 5.01.808 4.847.808 4.848.484 11.474 3.232 11.635 2.746 11.635 2.423 11.797 2.424 11.474 2.423 11.473 3.07 11.15 3.715 10.99 4.847 2.747.969 2.908 1.13 2.748 1.293 2.747 1.454 2.585 1.293 2.748 1.454 2.585 1.292 2.747 1.454 5.818 2.747 5.818 3.23 5.656 3.555 5.494 4.2 5.171 4.2 5.171 4.686 4.687 4.685 4.686 5.008 2.262 1.454 2.424 1.454 2.424 1.292 2.748 1.293 2.424.969 2.747.97 2.747.807 2.909.97-2.424-.162-2.1-.323-1.94-.485-1.94-.323-2.1-.646-1.94-.646-1.939-.647-1.939-.646z" fill="#ffdeff" fill-rule="evenodd"/><path d="M309.625 134.09l4.04-4.363 3.555-4.362 3.232-4.846 3.232-4.685 2.91-4.847 3.554-4.523 3.879-4.2 4.848-3.555 2.1-.808 2.263-.807 2.1-.808 2.263-.646 2.101-.808 2.1-.808 2.102-.808 2.262-.646-6.464 2.747-5.818 3.715-5.656 4.2-5.17 5.17-5.01 5.332-4.364 5.816-4.201 5.816-3.717 5.977-1.454 1.13-1.455 1.293-.808.323-.808.162h-.808l-.808-.162z" fill="#fff0ff" fill-rule="evenodd"/><path d="M323.2 104.687l4.363-4.685 4.686-4.685 4.848-4.524 5.01-4.039 5.01-3.877 5.332-3.07 5.656-2.261 6.303-1.293 3.393-.97 3.555-.484 3.717-.484h7.272l3.717.323 3.555.484 3.555.808-7.595 1.616-7.11 2.423-6.949 2.746-6.787 3.393-6.949 3.07-6.949 3.23-7.11 2.747-7.11 2.423-4.525 3.393-3.717 4.039-3.394 4.362-2.909 4.685-3.07 4.685-3.07 4.685-3.394 4.362-3.555 4.2 1.616-3.554 1.777-3.393 1.616-3.554 1.778-3.392 1.778-3.393 1.777-3.393 1.94-3.392 1.939-3.231z" fill="#8000ff" fill-rule="evenodd"/><path d="M280.86 118.903l2.424 1.616 2.424 1.454 2.586 1.292 2.747 1.131 2.747.808 2.748.97 2.747.969 2.909.969.808.485.484.969.324.97.161 1.453-3.393-.97-3.232-.968-3.232-1.293-2.91-1.292-3.07-1.777-2.585-1.939-2.586-2.423-2.1-2.424z" fill="#fff" fill-rule="evenodd"/><path d="M311.726 112.118l1.616-1.292 1.616-1.293.808-.808.97-.484.97-.485 1.13-.161-12.443 23.748-.808-2.585-.161-2.423.161-2.747.808-2.423.808-2.746 1.293-2.262 1.454-2.262 1.778-1.777z" fill="#8000ff" fill-rule="evenodd"/><path d="M46.38 130.212l1.454.646 1.616.162 1.454-.162 1.616-.323 1.454-.646 1.616-.646 1.455-.646 1.777-.485-.484.97-.647 1.13-.97.808-.807.97-1.293.645-.97.808-1.131.646-.808.808-6.14-.808.807-3.877z" fill="#8080ff" fill-rule="evenodd"/><path d="M60.6 131.666l-.485-1.939.485-1.292.97-.97 1.454-.646 1.454-.807 1.616-.97 1.293-1.13.97-1.454-.323-3.232.808-2.584 1.616-2.424 2.262-2.1 2.1-2.262 2.263-2.261 1.616-2.585.97-2.747-.323-1.13-.647-.808-.97-.485-1.13.162-1.617.161-1.292-.323-1.293-.323-1.131.485-.485-1.131-.485-1.131-.808-.97-.808-.646-1.616.97-.97 1.454-.97 1.454-.646 1.777-.97 1.454-.807 1.615-1.293 1.293-1.616.969-1.616.97-.323 1.292.161 1.13.808 1.293.485 1.13.162 1.293-.485 1.293-1.293 1.292-.161.808.323.97.323.969.323.969.162.808v.969l-.485.97-.808.969-.162.969-.323.808-.97.484-.807.485-1.132.162-1.13.484-.97.485-.647.646-1.131.162-1.131-.162-.97-.323-.808-.323-.97-.485-.807.162-.808.646-.485 1.454.485.646v1.131l-1.616.485-1.616.161-1.778-.484-1.454-.808-1.455-2.1-1.454-1.939-1.778-1.939-1.616-1.454-2.1-1.615-2.101-1.293-2.263-1.13-2.1-.647-2.586-2.1-1.94-2.262-1.777-2.423-1.616-2.262-1.778-2.584-1.616-2.424-1.939-2.262-2.1-2.1-.647-1.777-.646-1.454-.808-1.615-.485-1.454-.647-1.777-.323-1.616v-1.777l.647-1.777 4.686 1.454v1.292l.485 1.293.808 1.13 1.131 1.131 1.131.808 1.293.97 1.131.969 1.131.97.97.16 1.131.485.97.162 1.131-.162.646-.969.485-.808.162-.969.161-.808-.161-1.13v-1.94l.161-.484v-1.777l.324-1.616.484-1.454.97-1.292.97-1.454 1.13-1.13 1.132-1.293 1.454-.97 4.364-1.777 4.686-1.13 4.686-.97 4.687-.97 4.363-1.13 4.525-1.616 4.363-2.1 4.202-2.423 2.585-1.454 2.909-1.454 2.586-1.616 2.908-1.292 2.91-1.454 2.908-.97 2.909-.969 3.393-.323-.97.808-.807.808-1.131.646-1.132.808-1.292.484-1.293.647-1.293.484-.97.97-.161.807-.162.808-.485.808-.646.808h-1.293l-.97.484-.807.647-.485.969.323 1.13.485 1.132.323 1.13.162 1.131-.324.97-.323 1.13-.485 1.131-.484 1.131-1.293.647-.97.969-1.131.97-.485 1.292-2.1-1.454-1.132.484-.97.97-.807.969-.647 1.292-.97.808-.807.97-1.132.646-1.454.323-.323.97-.323.645h-.647l-.485-.161-1.13-.808-.97-.323-.97 1.13v2.909l-.485 1.615-.808 2.908-1.454 2.1-2.101 1.293-2.424.97-2.747.645-2.586.808-2.424 1.131-1.777 1.939-.162 1.292.808.808 1.131.485 1.131.323 1.293.646 1.131 1.13.808 1.293.808 1.616.808 1.292.97 1.293 1.454.807 1.94.323 1.939-1.13 1.939-1.454 1.454-1.778 1.616-1.777 1.293-2.261 1.616-2.1 1.455-1.94 2.1-1.776v-3.392l.162-.97-.162-1.131-.161-.97-.647-.969-.484-.646-1.132-.485-.97.162-.969.323-.808.485-1.616.969-1.616.97.323-1.455.808-1.292.485-1.454.162-1.454.97.323h1.13l.647-.485.808-.323.646-.807.808-.485.97-.646h1.131l2.424-3.231.323.323.485.969.323 1.292v1.293l.808.646.97.808.808.808.97.807.97.323.969.324.97-.162 1.292-.646.647-.808.97 1.13 1.615.647 1.455.323 1.616.485 1.292.323 1.132.808.646 1.292.162 2.1 3.878 3.555h-1.454l-1.132.484-1.292.646-.97 1.293-.97 1.292-.97 1.293-.807 1.292-.485 1.131-.162 3.393-.808 3.392-1.616 2.908-1.939 2.908-2.424 2.585-2.424 2.746-2.424 2.585-2.1 2.908h-3.394l-1.616-.323-1.293-.323z" fill="#fff0ff" fill-rule="evenodd"/><path d="M89.688 121.004l1.131-.162.808.646.485.97.808 1.13-.162.647v.969l-.323.97-.162.969-.646.807-.485.808-.808.646-.646.485.323-1.13.323-.97.162-1.293.323-1.292-.162-1.292v-1.131l-.484-1.131-.485-.646z" fill="#ff8fff" fill-rule="evenodd"/><path d="M359.721 92.57l3.717-2.746 3.878-2.262 3.879-2.262 4.201-1.777 4.04-1.777 4.202-1.292L388.001 79l4.525-.97 3.394-.323 3.393.162 3.555.161 3.556.485 3.393.485 3.555.807 3.556.97 3.555 1.454-13.575 2.261-13.09 2.747-13.089 3.393-12.443 4.361-12.12 5.332-11.635 6.623-10.827 8.078-9.858 9.855 2.909-5.493 3.555-4.847 4.04-4.685 4.525-4.2 4.686-4.039 5.333-3.392 5.333-3.07 5.494-2.585z" fill="#9e00ff" fill-rule="evenodd"/><path d="M301.545 117.45l.485-1.131.646-.808.808-.646.97-.485.808-.485.97-.323.97-.323.969-.323-1.131 1.292-.808 1.454-.808 1.454-.485 1.616-.647 1.454-.484 1.777-.485 1.454-.485 1.777-.97-.97-.484-.807-.485-.97v-.969l-.162-1.13.162-.97.161-.97.485-.969z" fill="#fff" fill-rule="evenodd"/><path d="M386.062 91.6l-4.525 2.263-4.525 2.423-4.524 2.262-4.364 2.423-4.686 2.1-4.525 2.1-4.525 2.1-4.524 2.1-21.332 14.864 5.656-6.14 6.303-5.492 6.787-4.847 7.272-4.362 7.434-3.877 7.918-3.231 7.918-2.747 8.242-1.938z" fill="#fff0ff" fill-rule="evenodd"/><path d="M282.961 117.772l16.322-2.1-.323.808-.324 1.13-.484 1.132v1.292l-.162 1.131.323 1.293.485.969.97 1.13-2.424-.645-2.101-.647-2.263-.807-1.939-.647-2.1-.969-2.101-.97-1.94-1.13-1.939-.97z" fill="#bf00ff" fill-rule="evenodd"/><path d="M22.14 120.68l1.454.647 1.616.807 1.777.647 1.778.969 1.293.808 1.454 1.13 1.131 1.293.808 1.777-1.616-.808-1.616-.646-1.777-.808-1.455-.646-1.616-1.13-1.293-.97-1.292-1.616-.647-1.454z" fill="#dedeff" fill-rule="evenodd"/><path d="M59.792 125.204v-.97l.323-.969.162-.969.323-.97v-2.261l-.485-.97-.646-.646.808-.807.485-.808.161-.97.162-.807-.323-1.131-.324-1.131-.323-.97-.323-.807 1.293-1.13 1.293-1.132 1.13-1.292 1.294-1.293.808-1.615.97-1.454.646-1.616.808-1.454.97.323.484 1.131v1.131l.97 1.293 6.787-.647-.647 2.585-1.454 2.424-2.1 2.1-2.102 2.261-2.262 2.1-1.616 2.424-.808 2.585.323 3.07-1.454 1.453-1.455 1.293-.97.323-.969.161h-.97l-.97.162z" fill="#ff80ff" fill-rule="evenodd"/><path d="M263.892 104.364h6.95l6.786-.808 6.626-1.454 6.626-1.939 6.14-2.746 6.141-2.908 5.818-3.231 5.979-3.231 6.464-4.04 6.302-4.361 5.98-5.008 5.979-5.17 5.494-5.654 5.333-5.655 5.01-5.816 5.01-5.654-.647 1.615-.647 1.616-.484.808V52.505l.646.97.97.807 1.454.485h1.454l1.455-.162.323-.646.808-.162-5.656 5.978-5.171 6.462-5.333 6.462-5.01 6.624-5.494 6.3-5.333 6.14-5.817 5.815-5.98 5.332-1.777.161-1.455.646-1.292.808-1.293 1.131-1.455.97-1.292 1.13-1.616.808-1.455.808-3.878 1.615-3.879 1.454-4.201.97-4.202.969-4.525.323-4.363.162-4.363-.324-4.04-.646-1.94-1.13-1.777-.97-1.777-1.13-1.616-1.132-1.616-1.292-1.455-1.293-1.454-1.292-1.454-1.292z" fill="#de00ff" fill-rule="evenodd"/><path d="M82.9 110.341v-.97l.486-.322.484-.162h4.04l.485 1.292 1.131 1.131 1.293.808 1.454.646 1.455.323 1.454.324h1.455l1.616.161-1.778.323-1.454.97-1.293.969-1.293 1.13-1.616.808-1.454.485-1.616.162-1.616-.162-.323-1.292-.324-.97-.484-.969-.485-.97-.647-.969-.484-.807-.324-.97-.161-.969z" fill="#ff4fff" fill-rule="evenodd"/><path d="M370.71 108.887l8.242-3.716 8.564-3.23 8.727-3.07 9.21-2.424 9.212-2.1 9.373-1.292 9.534-.646 9.696.484 2.91 1.131 3.231 1.131 3.07.97 3.232 1.13 3.07.808 3.071.97 2.91.807 3.07.97-6.626 1.615-6.464.485-6.464-.485-6.303-.808-6.625-1.13-6.626-.647h-6.787l-6.787 1.292-5.818.808-5.656.646-5.817.324-5.656.646-5.818.484-5.494 1.131-5.333 1.454-4.848 2.262z" fill="#f0f" fill-rule="evenodd"/><path d="M43.794 106.787l-3.556-.97.97-1.13 1.131-.647 1.293-.646 1.454-.323 1.455-.485 1.454-.323 1.455-.484 1.454-.323 1.131-.97 1.293-.808 1.293-.807 1.293-.646 1.13-.808 1.294-.646 1.454-.647 1.454-.323.162 2.424-.323 2.423-1.293 2.1-1.454 2.262-1.94 2.1-1.777 2.1-1.778 1.939-1.131 2.423-1.94.646H48.48l-.97-.807-.484-1.293-.647-1.615-.646-1.616-.808-1.292-1.131-.808z" fill="#f0f0ff" fill-rule="evenodd"/><path d="M87.587 106.464h-2.262l.323-1.131.808-.485.97-.484.97-.162.807-.323.808-.162.808-.646.646-.808-.323-.969-.485-.808-.646-.808-.646-.484-1.616-.97-1.293-.969.808-.323 1.131-.161 1.131.161 1.131.97 1.132 2.1 1.616 1.615 1.777.646 2.424.485 2.424-.162h4.848l2.586.324.323 1.615.97 1.293 1.292.484 1.616.323h5.333l1.778.485-3.394.485-3.232.969-3.393 1.13-3.07 1.132-3.233.646-3.232.161-3.393-.484-3.394-1.131-4.848-3.554z" fill="#ff70ff" fill-rule="evenodd"/><path d="M285.062 90.147l3.878-4.524 4.364-3.715 4.686-3.231 4.848-2.908 4.848-2.908 4.848-2.908 4.686-3.231 4.525-3.555 5.818-4.038 5.979-4.2 5.98-4.363 5.978-4.2 5.98-4.2 6.302-3.555 6.464-3.07 6.949-2.261 1.939-1.616 2.424-1.13 2.424-.97 2.424-.646 2.424-.808 2.747-.484 2.424-.647 2.747-.484 1.293-.323.97.161.646.323.647.808.161.808.162.97.161.969.162 1.292-4.363 1.292-4.202 1.293-4.363 1.13-4.202 1.616-4.201 1.777-3.717 2.262-3.555 2.908-3.07 3.716.161-1.939.646-1.454.97-1.454 1.293-1.13 1.293-1.293 1.454-.97 1.454-.969 1.616-.484-1.292-.97h-1.132l-1.292.323-.97.808-1.131.808-1.131 1.13-1.132.808-1.13.647-6.465 6.785-6.302 7.27-6.626 7.108-6.625 6.947-7.272 6.3-7.434 5.655-7.918 4.847-8.242 3.877-4.848 2.746-4.686 2.585-5.01 2.262-5.01 1.938-5.332 1.293-5.333.97-5.656.16-5.656-.322 20.523-11.632z" fill="#ff00de" fill-rule="evenodd"/><path d="M258.56 100.002l7.918-5.978 7.757-6.3 7.272-6.624 7.433-6.462 7.272-6.786 7.434-6.623 7.595-6.3 8.08-5.655 7.11-3.554 7.111-3.878 6.787-4.2 6.949-4.039 6.787-3.877 7.434-3.231 7.757-2.424 8.241-1.13 9.211 1.777-6.464 2.261-6.302 2.424-6.302 2.585-5.98 2.908-6.302 2.908-5.818 3.392-5.979 3.554-5.494 4.2-5.333 3.555-5.333 3.877-5.171 3.877-5.171 3.878-5.333 3.715-5.333 3.555-5.494 3.392-5.495 2.908-4.04 3.878-4.04 3.554-4.524 3.07-4.364 3.069-4.848 2.585-4.686 2.423-4.848 2.262-4.848 2.261-.646-.807z" fill="#ff00bf" fill-rule="evenodd"/><path d="M253.227 95.478l5.333-4.2 5.01-4.524 4.363-5.331 4.201-5.17 4.202-5.493 4.524-5.008 5.01-4.846 5.98-4.2 4.04-4.847 4.524-3.878 4.848-3.392 5.333-2.908 5.171-2.747 5.494-2.584 5.333-2.585 5.495-2.585 3.232-.646 3.393-.485 3.232-.808 3.394-.808 3.232-1.13 3.232-1.131 3.07-1.454 3.07-1.454 1.617-.162 1.777-.161 1.616-.324 1.778-.323 1.454-.484 1.778-.485 1.616-.485h1.939l-7.757 2.1-7.272 3.232-6.949 3.715-6.787 4.2-6.787 4.04-6.787 4.2-6.949 3.716-6.949 3.23-7.272 5.817-7.272 6.3-7.272 6.3-7.11 6.625-7.434 6.3-7.272 6.462-7.272 6.14-7.272 6.138-.808-.646-.808-.323-.97-.485-.646-.161-1.13-.97.484-1.292z" fill="#f0f" fill-rule="evenodd"/><path d="M248.54 91.6l2.748-4.684 2.909-4.685 2.908-4.847 3.232-4.523 2.91-4.685 3.393-4.362 3.393-4.362 3.717-3.878 1.778-2.584 2.1-2.262 2.101-1.939 2.263-1.777 2.1-1.939 2.263-1.938 2.262-2.1 2.263-2.1 4.524-1.616 4.687-1.616 4.686-1.938 4.687-1.777 4.686-1.777 4.848-1.293 4.848-.97 5.333-.322 2.909-.97 3.07-1.454 2.747-1.777 2.909-1.615 2.747-1.777 2.909-1.293 2.909-.97 3.232.162-3.232 1.616-3.07 1.616-3.233 1.453-3.232 1.616-3.232 1.454-3.232 1.777-3.07 1.777-2.909 2.262-4.686 1.939-4.525 2.1-4.686 2.1-4.364 2.423-4.524 2.262-4.202 2.908-4.04 3.231-3.717 4.039-2.1 2.423-2.101 2.262-2.424 1.939-2.263 1.938-2.424 1.777-2.424 1.939-2.424 1.939-2.1 2.1-2.586 3.716-2.586 3.877-2.909 3.392-2.908 3.555-3.394 3.23-3.232 3.07-3.555 2.908-3.555 2.908-.97-.485-.646-.323-.485-.323v-.323l.162-1.13.808-1.293z" fill="#ff1fff" fill-rule="evenodd"/><path d="M32.805 93.701l-.647-1.292-.161-1.293v-1.292l.323-1.131.323-1.293.485-1.13.485-.97.646-.808.647-1.292 1.13-1.13.97-.97 1.293-.808 1.131-.808 1.293-.323L42.016 79l1.454.484 1.455-.323 1.454.323 1.293.647 1.131.969.808.97.97 1.292.808 1.13.97 1.293.16 1.13.163 1.132-.324.969-.161 1.13-.485.97-.323 1.131-.485 1.13v1.293l-.97.485-.97.808-.807.484-.808.808-.97.485-.808.485-.97.484-.807.646-1.778-.323-1.454-.161-1.616-.485-1.455-.485-1.454-.807-1.293-.808-1.131-1.293-.808-1.292z" fill-rule="evenodd"/><path d="M37.491 96.124v-1.292l.323-.97.647-.807 1.131.323h1.454l1.616.485 1.616.646 1.616.97-.323.645-.646.647-.97.484-.808.646-1.777-.323-1.455-.161-1.454-.646-.97-.647z" fill="azure" fill-rule="evenodd"/><path d="M242.077 91.6l.323-1.938.485-1.615.484-1.616.808-1.615.647-1.778.646-1.615.647-1.777.646-1.616 1.616-9.047 3.717-7.431 5.494-6.624 6.626-5.493 7.272-4.846 7.756-4.362 7.596-3.877 7.11-3.716 5.171-2.423 5.333-2.262 5.171-2.262 5.171-2.1 5.172-2.262 5.17-2.1 5.172-2.262 5.333-2.1 1.293-.485 1.454-.323 1.293-.323 1.454-.162 1.293-.323 1.454-.323 1.293-.484 1.455-.485-6.95 4.2-7.11 3.716-7.433 3.231-7.272 3.07-7.595 2.746-7.596 2.746-7.433 2.908-7.272 3.232-6.626 5.815-6.14 6.463-5.98 6.623-5.494 6.947-5.333 6.947-4.686 7.431-4.525 7.27-3.878 7.593-3.232-1.292z" fill="#ff30ff" fill-rule="evenodd"/><path d="M18.26 95.801l.486-1.13.484-1.132v-2.261l-.323-1.293-.161-1.292v-1.131l.161-.97-.485-1.453v-.808l.324-.646.97-.485.807-.485 1.131-.323.97-.484.97-.323-1.132 1.292-.808 1.454-.646 1.777-.323 2.1-.485 1.939-.323 2.1-.162 1.939v2.261l-.808-.161-.646-.485z" fill="#cfcfff" fill-rule="evenodd"/><path d="M233.673 87.239l1.94-5.008 2.1-5.008 1.778-5.009 1.94-5.008 1.777-5.17 1.939-5.008 1.94-4.846 2.585-4.685 1.616-1.777 1.777-1.616 1.94-1.454 1.939-1.292 1.777-1.454 1.94-1.293 1.939-1.454 1.939-1.454 1.778-2.423 2.262-1.777 2.262-1.939 2.586-1.292 2.585-1.293 2.748-.807 2.747-.647h2.909l3.555-1.777 3.878-1.615 3.717-1.454 3.878-1.293 3.717-1.292 3.879-.808 3.878-.646h4.04l-8.565 4.524-8.888 4.038-9.534 3.878-9.211 4.2-9.05 4.685-7.918 5.978-6.95 7.431-5.17 9.532-1.455 3.715-1.13 3.716-1.132 3.716-.97 3.877-1.292 3.554-1.132 3.554-1.454 3.555-1.454 3.554-5.98-2.908z" fill="#ff40ff" fill-rule="evenodd"/><path d="M10.342 83.685l-.161-.97.485-.646.646-.484.97-.162.808-.323h1.13l.97-.162h1.94l-.647 1.616-.161 1.777v1.615l.323 1.94V89.5l.161 1.777-.161 1.615-.162 1.777-1.777-.807-1.132-.97-.97-1.454-.484-1.292-.646-1.777-.324-1.616-.484-1.615-.324-1.454z" fill="#ffdeff" fill-rule="evenodd"/><path d="M227.533 84.008l1.13-3.231.647-3.231.485-3.555.485-3.392.485-3.393.646-3.392 1.131-3.231 1.778-2.747 3.07-2.908 2.747-3.23 2.424-3.555 2.424-3.554 2.424-3.554 2.748-3.231 3.07-2.747 3.878-2.1-5.01 5.816-3.878 6.3-3.232 6.624-2.585 6.785-2.586 6.786-2.262 6.946L234.966 79l-2.747 6.785-1.454-.162-1.132-.323-1.13-.646-.97-.646z" fill="#ff4fff" fill-rule="evenodd"/><path d="M221.23 81.908v-1.454l.323-.97.324-.969.484-.808.485-.97.485-.807.485-.97.485-.807.646-3.393.808-3.392.646-3.393.97-3.23.97-3.394 1.454-2.907 1.94-2.908 2.585-2.262-1.455 3.392-1.292 3.716-1.455 3.554-.97 3.878-.97 3.715-.645 3.878-.647 3.877v4.2l-1.454 3.554-4.202-1.13z" fill="#ff70ff" fill-rule="evenodd"/><path d="M226.078 52.828l1.616-3.231 2.1-2.908 2.263-3.07 2.586-2.584 2.424-2.585 2.909-2.1 2.909-1.778 3.232-1.292-1.778 1.292-1.454 1.616-1.293 1.454-1.293 1.777-1.616 1.454-1.454 1.454-1.616 1.13-1.616 1.132-2.263 3.392-1.94 3.393-1.938 3.554-1.616 3.716-1.616 3.716-1.293 3.877-.97 3.877-.484 4.362-.485-2.908.323-2.746.485-2.747.97-2.584.807-2.747.808-2.585.808-2.746.485-2.585zM285.87 32.15l45.41-20.195 11.15-.646-7.11 1.777-6.788 2.262-6.787 2.584-6.464 2.908-6.625 2.908-6.303 3.07-6.464 2.908-6.464 3.23-4.363 2.263-4.363 2.423-4.363 2.262-4.202 2.423-4.363 2.423-4.04 2.908-4.04 3.231-3.717 3.716 2.263-4.2 3.07-3.554 3.555-3.07 4.04-2.746 4.04-2.585 4.363-2.262 4.202-2.1 4.363-1.939z" fill="#fff0ff" fill-rule="evenodd"/><path d="M263.084 22.294l12.767-2.584-3.879 2.1-3.878 2.261-3.878 1.94-3.879 2.422-3.878 2.262-3.878 2.747-3.717 3.07-3.232 3.553-10.181 14.54 1.131-5.17 2.263-4.846 3.07-4.524 3.878-4.039 4.04-4.038 4.364-3.555 4.363-3.392 4.524-2.747z" fill="#fff0ff" fill-rule="evenodd"/><path d="M262.761 29.403l3.07-2.1 3.071-1.94 3.07-1.938 3.394-1.777 3.232-1.777 3.555-1.13 3.555-.97 4.04-.485 3.879-2.1 4.201-1.454 4.202-1.13 4.525-.485 4.525-.485h4.686l4.525.161 4.686.485-5.01 1.292-5.009.97-5.171.808-5.171.807-5.172.808-4.848 1.454-4.848 1.616-4.201 2.584-1.131.324-1.132.484-1.13.162-1.132.323h-1.293l-1.13.161h-1.132l-.808.324-3.717 1.454-3.394 2.261-3.07 2.585-2.909 2.908-3.07 2.747-3.07 2.907-3.232 2.424-3.232 2.262.646-1.94 1.131-1.938 1.455-1.938 1.777-1.777 1.778-1.94 1.777-1.615 1.616-1.777 1.616-1.615zM357.62 17.932l1.455.162 1.616-.162 1.293-.484 1.454-.323 1.293-.808 1.293-.808 1.454-.808 1.454-.323 2.424-.161 2.424.484 2.424.323 2.424.647 2.424.323 2.424.323h2.424l2.586-.162-3.07 1.616-3.232.808-3.394.161h-3.232l-3.394-.323-3.393.323-3.07.485-2.748 1.615-3.555.162-3.232.808-3.07 1.13-2.91 1.455-3.07 1.13-3.07 1.293-3.394.808-3.232.323 20.2-10.017zM319.968 26.818l5.817-1.777 5.656-2.424 5.495-2.907 5.494-2.908 5.333-2.747 5.979-1.938 5.98-.808 6.786.646-2.585 2.585-2.909 1.292-3.232.485h-3.232l-3.555-.323-3.394.161-3.393.647-2.91 1.938-2.585 1.454-2.424 1.454-2.585 1.131-2.424 1.292-2.748.808-2.747.97-2.909.484-2.908.485zM380.083 21.164l3.07-.647 3.232-.323 3.232-.161 3.394.323 3.07.323 3.232.808 2.909 1.13 3.07 1.778-3.07.323-2.747.161-2.747-.161-2.424-.323-2.586-.647-2.424-.484-2.586-.647-2.424-.646-4.201-.807z" fill="#fff0ff" fill-rule="evenodd"/></svg>